<svg width="72" height="61" viewBox="0 0 72 61" fill="none" xmlns="http://www.w3.org/2000/svg">
<rect width="72" height="61" fill="url(#paint0_radial)"/>
<path d="M29.3598 25.0944C26.685 25.0944 24.0702 24.4222 21.8465 23.1628C19.6227 21.9035 17.8898 20.1135 16.8671 18.0195C15.8444 15.9255 15.5778 13.6215 16.1011 11.3991C16.6244 9.1767 17.914 7.13574 19.8068 5.53449C21.6997 3.93323 24.1106 2.84364 26.7345 2.40358C29.3584 1.96353 32.0775 2.19278 34.5476 3.06234C37.0177 3.9319 39.1278 5.40268 40.611 7.28858C42.0942 9.17448 42.8838 11.3907 42.8798 13.6569C42.8693 16.6905 41.4408 19.5971 38.907 21.7406C36.3733 23.8841 32.9405 25.09 29.3598 25.0944V25.0944ZM29.3598 5.59139C27.477 5.59139 25.6364 6.06442 24.0708 6.95068C22.5052 7.83693 21.285 9.0966 20.5645 10.5704C19.844 12.0442 19.6554 13.6659 20.0228 15.2305C20.3901 16.795 21.2968 18.2322 22.6282 19.3601C23.9596 20.4881 25.6559 21.2563 27.5026 21.5675C29.3493 21.8787 31.2634 21.719 33.003 21.1085C34.7425 20.4981 36.2294 19.4643 37.2754 18.1379C38.3215 16.8115 38.8798 15.2522 38.8798 13.6569C38.8798 11.5178 37.8768 9.46632 36.0915 7.95373C34.3061 6.44115 31.8847 5.59139 29.3598 5.59139V5.59139Z" fill="url(#paint1_linear)"/>
<path d="M32.84 53.6799C32.4029 53.3094 32.0657 52.8632 31.8517 52.3717C31.6376 51.8803 31.5517 51.3554 31.6 50.8332H8V41.0393C10.8358 38.4757 14.2754 36.4452 18.0962 35.0791C21.917 33.7131 26.0337 33.042 30.18 33.1094H31.62C31.5282 32.5412 31.5923 31.9628 31.8074 31.4192C32.0225 30.8755 32.3827 30.3811 32.86 29.9746L33.1 29.7882C32.16 29.7882 31.1 29.6866 30.18 29.6866C25.3008 29.5884 20.4568 30.4101 15.9983 32.0922C11.5399 33.7742 7.57826 36.2747 4.4 39.4127C4.14036 39.706 4 40.0627 4 40.4293V50.8332C4 51.732 4.42143 52.594 5.17157 53.2295C5.92172 53.8651 6.93913 54.2221 8 54.2221H33.4L32.84 53.6799Z" fill="url(#paint2_linear)"/>
<path d="M53.7402 27.6024C53.8392 27.585 53.9413 27.585 54.0402 27.6024C53.941 27.5871 53.8394 27.5871 53.7402 27.6024V27.6024Z" fill="black"/>
<path d="M67.36 39.5142L63.36 38.4806C63.0741 37.6517 62.6853 36.8508 62.2 36.0914L64.2 32.9397C64.2651 32.8137 64.2808 32.6732 64.2448 32.5391C64.2088 32.4049 64.123 32.284 64 32.1942L61.1 29.7372C60.9903 29.6366 60.8439 29.5702 60.6843 29.5487C60.5247 29.5272 60.3611 29.5518 60.22 29.6186L56.54 31.3131C55.6339 30.8815 54.6749 30.5349 53.68 30.2794L52.46 26.8906C52.4083 26.7658 52.31 26.6587 52.1802 26.5854C52.0503 26.512 51.8959 26.4764 51.74 26.4839H47.64C47.4825 26.4823 47.3288 26.5246 47.2024 26.6042C47.0759 26.6837 46.9838 26.7963 46.94 26.9244L45.72 30.3133C44.7183 30.5603 43.7523 30.9013 42.84 31.33L39.2 29.6356C39.062 29.5701 38.9018 29.5461 38.7456 29.5677C38.5894 29.5892 38.4465 29.655 38.34 29.7542L35.38 32.1942C35.2703 32.2921 35.1996 32.4168 35.1781 32.5505C35.1566 32.6843 35.1852 32.8205 35.26 32.9397L37.26 36.0236C36.731 36.7874 36.3082 37.6005 36 38.4467L32 39.4633C31.8487 39.5004 31.7159 39.5785 31.622 39.6856C31.5281 39.7927 31.4782 39.923 31.48 40.0564V43.53C31.4918 43.6524 31.5482 43.7687 31.6414 43.8627C31.7345 43.9568 31.8598 44.0241 32 44.0553L36 45.0889C36.2956 45.9201 36.698 46.7213 37.2 47.4781L35.2 50.7144C35.1237 50.8304 35.0941 50.9643 35.1158 51.0958C35.1375 51.2273 35.2092 51.3492 35.32 51.4431L38.22 53.9C38.3333 53.9957 38.4793 54.0587 38.6374 54.08C38.7954 54.1013 38.9573 54.0798 39.1 54.0186L42.84 52.3242C43.7301 52.7297 44.6687 53.0535 45.64 53.29L46.84 56.6789C46.8892 56.8043 46.9828 56.9139 47.108 56.9927C47.2333 57.0715 47.3841 57.1158 47.54 57.1194H51.64C51.7967 57.1183 51.949 57.075 52.0748 56.9958C52.2006 56.9166 52.2934 56.8057 52.34 56.6789L53.56 53.2053C54.5185 52.9686 55.4438 52.6448 56.32 52.2394L60.1 53.9339C60.239 53.9965 60.3983 54.0187 60.5536 53.9973C60.7089 53.9759 60.8517 53.9119 60.96 53.8153L64 51.5108C64.0818 51.4114 64.1256 51.2931 64.1256 51.1719C64.1256 51.0508 64.0818 50.9325 64 50.8331L62 47.6475C62.4856 46.9 62.8745 46.1104 63.16 45.2922L67.16 44.2586C67.3113 44.2216 67.4441 44.1435 67.5381 44.0364C67.632 43.9292 67.6819 43.799 67.68 43.6656V40.1072C67.6984 39.9928 67.6781 39.8764 67.6214 39.7714C67.5648 39.6664 67.4741 39.5772 67.36 39.5142V39.5142ZM49.7 47.4442C48.3772 47.4475 47.0829 47.118 45.9813 46.4974C44.8797 45.8769 44.0204 44.9932 43.5124 43.9583C43.0043 42.9235 42.8703 41.7842 43.1274 40.6848C43.3846 39.5854 44.0212 38.5754 44.9566 37.7829C45.892 36.9904 47.0841 36.4511 48.3818 36.2332C49.6794 36.0154 51.0242 36.1289 52.2456 36.5593C53.467 36.9898 54.5101 37.7178 55.2426 38.6511C55.9751 39.5844 56.364 40.6809 56.36 41.8017C56.3548 43.2968 55.6514 44.7294 54.4035 45.7866C53.1557 46.8438 51.4647 47.4397 49.7 47.4442V47.4442Z" fill="url(#paint3_linear)"/>
<defs>
<radialGradient id="paint0_radial" cx="0" cy="0" r="1" gradientUnits="userSpaceOnUse" gradientTransform="translate(36 63.7111) rotate(-90) scale(2.71111 3.2)">
<stop stop-color="#EFEAEA"/>
<stop offset="1" stop-color="#EFEAEA" stop-opacity="0"/>
</radialGradient>
<linearGradient id="paint1_linear" x1="47.8356" y1="13.5555" x2="19.6611" y2="14.9941" gradientUnits="userSpaceOnUse">
<stop stop-color="#254BD0"/>
<stop offset="1" stop-color="#D630BB"/>
</linearGradient>
<linearGradient id="paint2_linear" x1="6.41085" y1="46.7668" x2="36.0038" y2="47.1256" gradientUnits="userSpaceOnUse">
<stop stop-color="#CB2BC5"/>
<stop offset="1" stop-color="#2241AE"/>
</linearGradient>
<linearGradient id="paint3_linear" x1="36.9863" y1="38.6333" x2="64.1096" y2="38.6333" gradientUnits="userSpaceOnUse">
<stop stop-color="#A117A4"/>
<stop offset="1" stop-color="#221A82"/>
</linearGradient>
</defs>
</svg>
