<svg width="981" height="803" viewBox="0 0 981 803" fill="none" xmlns="http://www.w3.org/2000/svg">
<ellipse cx="472.805" cy="374.035" rx="382.988" ry="374.035" fill="#23F800"/>
<ellipse cx="471.259" cy="392.737" rx="349.483" ry="355.334" fill="#FFFAFA"/>
<path d="M448.175 64.1872C451.735 64.9668 458.064 64.9668 462.019 64.1872C465.58 63.0178 462.415 62.2382 454.899 62.2382C447.384 62.2382 444.219 63.0178 448.175 64.1872Z" fill="black"/>
<path d="M338.603 174.5C337.021 185.804 333.461 201.007 330.296 208.023L324.758 220.886L307.749 213.87C298.256 209.972 285.993 205.684 280.06 204.125L269.379 201.786L276.5 218.158C280.455 227.513 284.806 240.376 285.993 247.393L288.367 259.476L250.788 262.205L212.814 265.323L230.614 283.254C260.677 314.048 261.073 315.607 233.779 334.707C220.725 343.673 210.836 352.248 211.627 353.808C212.814 355.367 218.747 357.706 225.076 358.875C231.801 360.434 242.877 366.671 249.997 372.908L263.05 384.602L245.646 402.143L228.241 419.683L238.921 423.971C244.854 425.92 250.392 427.869 251.183 427.869C251.975 427.869 257.117 429.428 262.655 431.377C272.148 435.275 272.148 435.665 267.402 453.986L262.259 472.696L281.642 471.527L300.629 469.967V483.61C300.629 495.304 301.816 496.864 308.54 495.304C318.034 492.966 318.034 493.745 308.54 475.814C299.442 457.884 284.411 403.702 285.202 389.279C285.598 382.653 287.18 384.991 289.553 396.685C303.794 465.68 315.265 489.068 339.79 499.982C365.502 511.286 361.546 518.302 321.198 530.776L286.784 541.69L269.775 600.94C248.019 678.12 248.019 683.577 272.148 699.559C282.433 706.575 297.069 714.371 304.585 716.71C312.1 719.438 320.407 722.557 322.385 724.116C324.758 725.675 337.812 731.132 352.052 736.2C376.182 744.775 384.489 745.555 478.633 746.724C575.151 747.894 581.48 747.504 623.014 738.149C647.144 732.692 676.811 723.336 689.073 717.489C709.247 707.745 712.016 705.406 712.016 694.881C712.016 680.459 698.963 637.191 690.656 625.107C685.118 616.532 685.909 614.973 705.687 594.703C717.159 583.009 729.817 572.095 733.377 570.925C742.079 567.417 749.199 550.656 745.639 542.08C743.661 538.182 742.079 515.574 741.684 492.186C741.288 456.714 739.706 446.58 732.19 432.547C712.412 394.736 674.438 367.84 633.694 362.773C611.938 360.434 573.964 367.061 553.79 377.195C526.101 391.228 491.687 435.665 491.291 457.884C491.291 464.51 489.313 473.865 486.94 478.153C480.611 489.847 481.798 503.88 490.5 518.692C497.62 530.386 498.016 532.725 492.478 537.013C481.007 546.368 487.336 567.807 503.554 573.264C509.092 575.213 509.883 574.044 507.905 565.078C506.323 557.672 509.092 560.011 517.398 574.044C536.781 606.007 574.36 626.666 613.916 626.666C625.388 626.666 632.508 628.226 630.925 630.564C627.761 635.632 579.502 629.395 555.768 620.43C547.066 616.921 530.452 657.461 527.683 688.644C526.101 703.847 523.727 716.32 522.145 716.32C520.563 716.32 517.398 704.626 514.629 689.814C511.861 675.391 501.18 636.022 491.291 601.719L472.7 539.741L443.032 531.556C418.507 524.929 412.969 521.811 412.178 514.404C411.387 509.727 412.574 505.829 414.947 505.829C417.321 505.829 426.023 499.982 433.934 492.576C442.241 485.559 454.108 478.543 460.437 476.984L471.909 474.255L463.206 465.29C452.13 453.596 452.526 452.037 469.14 448.918C479.82 446.969 482.589 445.02 480.215 439.953C473.095 422.412 473.886 420.853 492.082 412.667C501.971 408.379 510.278 404.092 510.278 403.312C510.278 402.143 502.367 396.685 492.478 391.228C475.073 381.093 469.535 373.297 479.82 373.297C488.127 373.297 534.012 350.299 534.012 346.012C534.012 344.063 532.43 342.114 530.452 342.114C528.474 342.114 518.585 338.605 508.3 333.928L489.709 325.742L510.278 305.083C521.354 293.779 529.265 283.644 527.288 282.474C525.705 281.695 513.838 279.356 501.576 278.187C479.424 275.458 473.886 270.78 481.798 261.815C483.775 259.866 490.896 248.172 498.016 236.088L510.674 213.87L482.589 224.005C467.162 229.462 453.713 232.97 452.526 231.801C451.339 230.631 448.966 214.649 448.175 196.329C446.988 178.008 444.615 162.806 443.032 162.806C437.494 162.806 405.454 186.974 395.169 198.668L385.28 210.362L374.6 195.16C369.062 186.974 359.173 174.5 352.844 167.094L341.372 153.841L338.603 174.5ZM360.359 318.726C369.062 327.301 371.831 333.148 371.04 340.944C369.853 351.859 369.853 351.859 338.208 351.859C306.563 351.859 306.563 351.859 305.376 340.944C303.794 327.301 323.176 307.032 338.208 307.032C344.537 307.032 353.239 311.709 360.359 318.726ZM440.263 328.86C448.966 333.538 451.339 337.046 450.152 345.232C449.361 352.248 446.988 355.367 443.032 354.197C439.868 353.418 426.023 351.859 412.178 351.079C398.729 349.91 386.467 347.181 385.28 345.232C381.324 338.995 387.258 323.403 394.773 321.454C404.663 318.726 427.21 322.234 440.263 328.86ZM611.543 492.186C616.685 519.472 589.391 544.809 560.515 539.352C543.11 536.233 526.101 517.523 526.101 501.541C526.101 490.627 526.496 490.237 545.879 490.237C570.404 490.237 593.347 481.661 593.347 472.306C593.347 460.612 608.774 477.763 611.543 492.186ZM662.966 484.78C670.086 487.898 685.118 490.237 696.194 490.237C713.598 490.237 715.972 491.017 715.972 498.423C715.972 532.725 667.713 550.266 641.21 525.709C626.97 512.845 624.992 496.864 635.277 477.763C640.815 466.849 642.001 466.459 645.561 472.306C647.935 476.204 655.45 481.661 662.966 484.78ZM344.141 540.911C339.79 549.876 330.692 570.925 323.967 588.466L312.1 620.04L327.132 635.242C339.394 647.326 340.977 650.834 336.625 654.732C332.274 659.02 331.879 658.63 334.252 654.342C336.23 650.834 332.274 644.987 321.99 636.411L306.563 623.548L316.056 596.652C325.945 568.976 346.91 525.319 350.075 525.319C351.261 525.319 348.492 532.335 344.141 540.911ZM448.57 574.433C469.535 616.532 469.931 620.819 454.504 636.801L441.45 650.054L456.877 666.816L472.7 683.187L454.899 666.816L437.494 650.054L450.548 636.801C461.624 625.497 463.206 621.599 461.228 612.634C458.064 601.33 440.659 565.078 426.419 540.911L418.507 527.268L426.419 537.013C430.77 542.08 440.659 559.231 448.57 574.433ZM422.859 585.348C423.65 608.736 420.485 600.55 418.112 572.095C416.925 556.113 417.321 551.046 419.298 558.452C420.881 564.689 422.463 577.162 422.859 585.348ZM350.866 615.752C350.075 627.056 349.679 618.87 349.679 597.432C349.679 575.993 350.075 566.637 350.866 576.772C351.657 586.907 351.657 604.448 350.866 615.752ZM426.023 625.497C424.836 629.395 424.045 627.056 424.045 620.819C424.045 614.193 424.836 611.464 426.023 613.803C426.814 616.532 426.814 621.989 426.023 625.497Z" fill="black"/>
<path d="M151.501 418.124C151.501 426.7 152.292 429.818 153.083 424.751C153.875 420.073 153.875 413.057 153.083 409.159C151.897 405.651 151.106 409.549 151.501 418.124Z" fill="black"/>
<path d="M154.666 445.8C154.666 450.088 155.852 451.257 157.039 448.139C158.226 445.41 157.83 441.902 156.643 440.733C155.457 439.173 154.27 441.512 154.666 445.8Z" fill="black"/>
<path d="M793.502 554.554C789.942 564.689 790.733 567.027 795.48 559.231C797.853 555.333 799.04 551.046 797.853 550.266C797.062 549.097 795.084 551.046 793.502 554.554Z" fill="black"/>
<path d="M778.075 581.06L771.351 593.534L779.262 584.178C785.987 576.382 789.547 568.197 786.382 568.197C785.591 568.197 782.031 574.044 778.075 581.06Z" fill="black"/>
<path d="M757.11 607.956L749.595 616.922L758.693 609.515C767 602.499 769.373 599.381 766.208 599.381C765.417 599.381 761.462 603.279 757.11 607.956Z" fill="black"/>
<path d="M239.712 623.548C245.646 631.344 251.579 637.191 252.766 636.022C253.952 635.242 248.81 628.615 241.69 621.599L228.241 609.126L239.712 623.548Z" fill="black"/>
<path d="M731.399 636.801C724.278 644.207 720.718 649.275 724.278 648.105C729.816 646.156 749.99 622.769 746.43 622.769C745.639 622.769 738.914 629.005 731.399 636.801Z" fill="black"/>
<path d="M708.06 658.24C708.06 660.189 710.038 660.969 712.016 659.799C714.39 658.63 715.972 656.681 715.972 655.512C715.972 654.732 714.39 653.952 712.016 653.952C710.038 653.952 708.06 655.901 708.06 658.24Z" fill="black"/>
<path d="M448.175 64.1872C451.735 64.9668 458.064 64.9668 462.02 64.1872C465.58 63.0178 462.415 62.2382 454.899 62.2382C447.384 62.2382 444.219 63.0178 448.175 64.1872Z" fill="black"/>
<path d="M338.603 174.5C337.021 185.804 333.461 201.007 330.297 208.023L324.759 220.886L307.749 213.87C298.256 209.972 285.993 205.684 280.06 204.125L269.38 201.786L276.5 218.158C280.455 227.513 284.807 240.376 285.993 247.393L288.367 259.476L250.788 262.205L212.814 265.323L230.614 283.254C260.677 314.048 261.073 315.607 233.779 334.707C220.725 343.673 210.836 352.248 211.627 353.808C212.814 355.367 218.747 357.706 225.076 358.875C231.801 360.434 242.877 366.671 249.997 372.908L263.051 384.602L245.646 402.143L228.241 419.683L238.921 423.971C244.855 425.92 250.392 427.869 251.184 427.869C251.975 427.869 257.117 429.428 262.655 431.377C272.149 435.275 272.149 435.665 267.402 453.986L262.259 472.696L281.642 471.527L300.629 469.967V483.61C300.629 495.304 301.816 496.864 308.54 495.304C318.034 492.966 318.034 493.745 308.54 475.814C299.442 457.884 284.411 403.702 285.202 389.279C285.598 382.653 287.18 384.991 289.553 396.685C303.794 465.68 315.265 489.068 339.79 499.982C365.502 511.286 361.546 518.302 321.199 530.776L286.784 541.69L269.775 600.94C248.019 678.12 248.019 683.577 272.149 699.559C282.433 706.575 297.069 714.371 304.585 716.71C312.101 719.438 320.407 722.557 322.385 724.116C324.759 725.675 337.812 731.132 352.053 736.2C376.182 744.775 384.489 745.555 478.633 746.724C575.151 747.894 581.48 747.504 623.014 738.149C647.144 732.692 676.811 723.336 689.074 717.489C709.247 707.745 712.016 705.406 712.016 694.881C712.016 680.459 698.963 637.191 690.656 625.107C685.118 616.532 685.909 614.973 705.687 594.703C717.159 583.009 729.817 572.095 733.377 570.925C742.079 567.417 749.199 550.656 745.639 542.08C743.662 538.182 742.079 515.574 741.684 492.186C741.288 456.714 739.706 446.58 732.19 432.547C712.412 394.736 674.438 367.84 633.695 362.773C611.938 360.434 573.964 367.061 553.791 377.195C526.101 391.228 491.687 435.665 491.291 457.884C491.291 464.51 489.313 473.865 486.94 478.153C480.611 489.847 481.798 503.88 490.5 518.692C497.62 530.386 498.016 532.725 492.478 537.013C481.007 546.368 487.336 567.807 503.554 573.264C509.092 575.213 509.883 574.044 507.905 565.078C506.323 557.672 509.092 560.011 517.399 574.044C536.781 606.007 574.36 626.666 613.916 626.666C625.388 626.666 632.508 628.226 630.926 630.564C627.761 635.632 579.502 629.395 555.768 620.43C547.066 616.921 530.452 657.461 527.683 688.644C526.101 703.847 523.728 716.32 522.145 716.32C520.563 716.32 517.399 704.626 514.63 689.814C511.861 675.391 501.18 636.022 491.291 601.719L472.7 539.741L443.032 531.556C418.507 524.929 412.97 521.811 412.178 514.404C411.387 509.727 412.574 505.829 414.947 505.829C417.321 505.829 426.023 499.982 433.934 492.576C442.241 485.559 454.108 478.543 460.437 476.984L471.909 474.255L463.206 465.29C452.13 453.596 452.526 452.037 469.14 448.918C479.82 446.969 482.589 445.02 480.215 439.953C473.095 422.412 473.886 420.853 492.082 412.667C501.972 408.379 510.278 404.092 510.278 403.312C510.278 402.143 502.367 396.685 492.478 391.228C475.073 381.093 469.535 373.297 479.82 373.297C488.127 373.297 534.012 350.299 534.012 346.012C534.012 344.063 532.43 342.114 530.452 342.114C528.474 342.114 518.585 338.605 508.301 333.928L489.709 325.742L510.278 305.083C521.354 293.779 529.266 283.644 527.288 282.474C525.705 281.695 513.838 279.356 501.576 278.187C479.424 275.458 473.886 270.78 481.798 261.815C483.776 259.866 490.896 248.172 498.016 236.088L510.674 213.87L482.589 224.005C467.162 229.462 453.713 232.97 452.526 231.801C451.339 230.631 448.966 214.649 448.175 196.329C446.988 178.008 444.615 162.806 443.032 162.806C437.495 162.806 405.454 186.974 395.169 198.668L385.28 210.362L374.6 195.16C369.062 186.974 359.173 174.5 352.844 167.094L341.372 153.841L338.603 174.5ZM360.359 318.726C369.062 327.301 371.831 333.148 371.04 340.944C369.853 351.859 369.853 351.859 338.208 351.859C306.563 351.859 306.563 351.859 305.376 340.944C303.794 327.301 323.176 307.032 338.208 307.032C344.537 307.032 353.239 311.709 360.359 318.726ZM440.263 328.86C448.966 333.538 451.339 337.046 450.153 345.232C449.361 352.248 446.988 355.367 443.032 354.197C439.868 353.418 426.023 351.859 412.178 351.079C398.729 349.91 386.467 347.181 385.28 345.232C381.324 338.995 387.258 323.403 394.774 321.454C404.663 318.726 427.21 322.234 440.263 328.86ZM611.543 492.186C616.685 519.472 589.391 544.809 560.515 539.352C543.11 536.233 526.101 517.523 526.101 501.541C526.101 490.627 526.497 490.237 545.879 490.237C570.404 490.237 593.347 481.661 593.347 472.306C593.347 460.612 608.774 477.763 611.543 492.186ZM662.966 484.78C670.087 487.898 685.118 490.237 696.194 490.237C713.599 490.237 715.972 491.017 715.972 498.423C715.972 532.725 667.713 550.266 641.21 525.709C626.97 512.845 624.992 496.864 635.277 477.763C640.815 466.849 642.001 466.459 645.561 472.306C647.935 476.204 655.451 481.661 662.966 484.78ZM344.141 540.911C339.79 549.876 330.692 570.925 323.967 588.466L312.101 620.04L327.132 635.242C339.394 647.326 340.977 650.834 336.626 654.732C332.274 659.02 331.879 658.63 334.252 654.342C336.23 650.834 332.274 644.987 321.99 636.411L306.563 623.548L316.056 596.652C325.945 568.976 346.91 525.319 350.075 525.319C351.261 525.319 348.492 532.335 344.141 540.911ZM448.57 574.433C469.535 616.532 469.931 620.819 454.504 636.801L441.45 650.054L456.877 666.816L472.7 683.187L454.899 666.816L437.495 650.054L450.548 636.801C461.624 625.497 463.206 621.599 461.228 612.634C458.064 601.33 440.659 565.078 426.419 540.911L418.507 527.268L426.419 537.013C430.77 542.08 440.659 559.231 448.57 574.433ZM422.859 585.348C423.65 608.736 420.485 600.55 418.112 572.095C416.925 556.113 417.321 551.046 419.299 558.452C420.881 564.689 422.463 577.162 422.859 585.348ZM350.866 615.752C350.075 627.056 349.679 618.87 349.679 597.432C349.679 575.993 350.075 566.637 350.866 576.772C351.657 586.907 351.657 604.448 350.866 615.752ZM426.023 625.497C424.836 629.395 424.045 627.056 424.045 620.819C424.045 614.193 424.836 611.464 426.023 613.803C426.814 616.532 426.814 621.989 426.023 625.497Z" fill="black"/>
<path d="M151.501 418.124C151.501 426.7 152.292 429.818 153.084 424.751C153.875 420.073 153.875 413.057 153.084 409.159C151.897 405.651 151.106 409.549 151.501 418.124Z" fill="black"/>
<path d="M154.666 445.8C154.666 450.088 155.852 451.257 157.039 448.139C158.226 445.41 157.83 441.902 156.644 440.733C155.457 439.173 154.27 441.512 154.666 445.8Z" fill="black"/>
<path d="M793.502 554.554C789.942 564.689 790.733 567.027 795.48 559.231C797.853 555.333 799.04 551.046 797.853 550.266C797.062 549.097 795.084 551.046 793.502 554.554Z" fill="black"/>
<path d="M778.076 581.06L771.351 593.534L779.262 584.178C785.987 576.382 789.547 568.197 786.382 568.197C785.591 568.197 782.031 574.044 778.076 581.06Z" fill="black"/>
<path d="M757.111 607.956L749.595 616.922L758.693 609.515C767 602.499 769.373 599.381 766.209 599.381C765.417 599.381 761.462 603.279 757.111 607.956Z" fill="black"/>
<path d="M239.712 623.548C245.646 631.344 251.579 637.191 252.766 636.022C253.952 635.242 248.81 628.615 241.69 621.599L228.241 609.126L239.712 623.548Z" fill="black"/>
<path d="M731.399 636.801C724.279 644.207 720.719 649.275 724.279 648.105C729.816 646.156 749.99 622.769 746.43 622.769C745.639 622.769 738.914 629.005 731.399 636.801Z" fill="black"/>
<path d="M708.061 658.24C708.061 660.189 710.038 660.969 712.016 659.799C714.39 658.63 715.972 656.681 715.972 655.512C715.972 654.732 714.39 653.952 712.016 653.952C710.038 653.952 708.061 655.901 708.061 658.24Z" fill="black"/>
</svg>
