<?xml version="1.0" standalone="no"?>
<!DOCTYPE svg PUBLIC "-//W3C//DTD SVG 20010904//EN"
 "http://www.w3.org/TR/2001/REC-SVG-20010904/DTD/svg10.dtd">
<svg version="1.0" xmlns="http://www.w3.org/2000/svg"
 width="225.000000pt" height="225.000000pt" viewBox="0 0 225.000000 225.000000"
 preserveAspectRatio="xMidYMid meet">
<metadata>
Created by potrace 1.16, written by Peter Selinger 2001-2019
</metadata>
<g transform="translate(0.000000,225.000000) scale(0.100000,-0.100000)"
fill="#000000" stroke="none">
<path d="M0 1125 l0 -1125 1125 0 1125 0 0 1125 0 1125 -1125 0 -1125 0 0
-1125z m708 390 c134 -45 223 -87 299 -140 72 -50 115 -57 174 -28 19 9 54 17
79 17 50 0 123 -30 113 -47 -4 -7 0 -8 13 -2 10 5 31 9 45 10 15 1 44 16 65
34 92 75 336 174 463 188 62 6 103 -10 115 -45 5 -15 5 -15 -8 1 -7 9 -18 17
-24 17 -6 0 -12 5 -14 11 -2 7 -23 9 -63 4 -44 -6 -55 -10 -40 -16 13 -5 15
-8 5 -8 -13 -1 -13 -2 0 -11 12 -8 12 -10 1 -10 -8 0 -11 -7 -8 -20 3 -11 1
-20 -4 -20 -5 0 -9 5 -9 10 0 6 -10 15 -22 20 -20 8 -21 9 -4 9 25 1 12 14
-17 17 -32 2 -168 -50 -140 -54 12 -2 31 2 42 7 11 6 26 11 33 11 26 0 -17
-19 -69 -30 -30 -7 -54 -18 -57 -27 -7 -17 5 -16 86 10 27 8 46 11 43 7 -3 -5
14 -11 37 -14 82 -11 93 -14 41 -13 -31 0 -58 -5 -69 -14 -16 -13 -15 -14 12
-20 26 -6 25 -7 -11 -8 -52 -2 -86 -11 -79 -22 3 -5 -12 -9 -33 -10 -32 0 -35
-2 -18 -10 15 -7 9 -8 -22 -4 -27 3 -43 1 -45 -7 -3 -8 -6 -7 -10 4 -5 12 4
17 47 22 29 3 65 13 81 21 16 8 34 15 39 15 6 0 18 9 27 19 16 19 16 20 -1 26
-10 3 -37 -2 -61 -10 -23 -8 -48 -15 -56 -15 -7 0 -34 -14 -59 -31 -25 -17
-48 -29 -51 -27 -2 3 13 17 35 31 22 15 45 36 51 48 9 17 1 14 -47 -16 -32
-21 -68 -47 -81 -59 -14 -13 -38 -21 -60 -22 -47 -1 -79 -11 -85 -27 -3 -9 20
-12 93 -11 53 0 101 4 107 7 5 3 23 2 39 -2 27 -8 26 -9 -13 -8 -51 1 -56 -3
-47 -38 6 -24 10 -26 43 -22 l36 5 -38 -11 c-27 -8 -36 -15 -32 -27 4 -13 -1
-15 -30 -12 -41 5 -48 -15 -7 -21 19 -3 14 -4 -15 -6 -47 -1 -60 -20 -15 -22
25 -1 26 -1 4 -7 -29 -9 -31 -14 -13 -36 12 -15 12 -16 -5 -9 -17 6 -18 5 -4
-13 14 -18 13 -18 -9 1 l-24 20 7 -29 7 -29 -36 32 c-21 18 -40 30 -43 27 -10
-10 54 -81 77 -84 29 -5 27 -22 -4 -22 -14 0 -33 -9 -42 -20 -20 -23 -66 -26
-102 -7 -13 6 -35 32 -48 57 -31 56 -31 56 -31 28 0 -148 -6 -188 -28 -188 -8
0 -14 -7 -14 -15 0 -9 -11 -27 -25 -41 -14 -14 -26 -30 -28 -36 -1 -6 -10 -20
-20 -30 -14 -15 -20 -16 -37 -6 -11 7 -20 19 -20 26 0 7 -12 31 -27 53 -25 37
-25 42 -10 51 19 10 15 46 -9 83 -8 12 -15 42 -16 68 -2 26 -5 47 -8 47 -3 0
-13 -12 -22 -28 -38 -63 -107 -93 -149 -64 -12 8 -40 21 -63 28 -32 10 -35 13
-16 13 14 1 36 8 48 17 12 8 22 10 22 5 0 -17 25 -13 43 7 15 16 15 18 -3 18
-10 0 -17 -4 -14 -7 2 -4 0 -10 -5 -13 -17 -11 -23 15 -9 32 45 52 31 54 -23
5 l-42 -38 18 34 18 35 -26 -17 c-24 -16 -26 -16 -20 0 5 12 3 14 -8 8 -12 -8
-12 -6 0 8 12 16 12 17 -5 11 -18 -5 -18 -5 -2 9 10 8 14 17 10 21 -4 4 7 5
23 1 26 -5 26 -4 -7 11 -21 9 -35 20 -32 25 3 5 -8 9 -25 9 -16 0 -33 5 -37
11 -3 6 -20 17 -38 25 -35 15 -21 19 17 5 22 -9 25 -7 31 21 8 38 6 40 -41 41
-21 0 -30 2 -20 4 10 3 14 9 10 16 -5 9 -3 9 8 0 18 -14 42 -17 144 -14 l80 2
-30 24 c-16 14 -34 25 -40 25 -5 0 -4 -4 4 -9 10 -6 2 -8 -22 -7 -21 2 -40 6
-45 10 -4 5 4 7 18 5 39 -5 39 15 0 28 -19 7 -27 12 -17 12 10 1 30 -5 45 -13
15 -7 54 -16 87 -20 61 -6 127 -41 140 -74 6 -15 8 -14 15 5 14 36 1 57 -62
98 -73 47 -78 50 -78 36 0 -6 18 -22 41 -37 22 -14 39 -27 37 -29 -6 -6 -88
36 -88 45 0 7 -17 11 -120 26 -43 7 -44 6 -30 -11 14 -17 14 -17 -7 -4 l-23
14 22 11 c20 11 19 12 -18 22 -30 9 -32 11 -9 8 17 -2 55 -13 85 -25 65 -25
92 -27 84 -7 -3 8 -24 18 -46 21 -23 4 -55 14 -72 22 -32 15 -32 15 51 -7 52
-13 29 5 -42 34 -67 27 -115 34 -115 16 0 -5 7 -10 15 -10 12 0 11 -4 -5 -20
-11 -11 -32 -19 -47 -19 -24 2 -25 2 -5 6 32 6 28 33 -5 34 -28 0 -28 0 -5 10
13 5 22 15 20 21 -5 14 -78 29 -93 19 -5 -3 13 -9 40 -12 l50 -7 -57 1 c-32 0
-61 -2 -65 -6 -3 -4 -11 -7 -17 -7 -6 0 3 11 19 25 26 22 36 25 83 19 29 -3
96 -20 150 -39z"/>
</g>
</svg>
