<?xml version="1.0" standalone="no"?>
<!DOCTYPE svg PUBLIC "-//W3C//DTD SVG 20010904//EN"
 "http://www.w3.org/TR/2001/REC-SVG-20010904/DTD/svg10.dtd">
<svg version="1.0" xmlns="http://www.w3.org/2000/svg"
 width="248.000000pt" height="203.000000pt" viewBox="0 0 248.000000 203.000000"
 preserveAspectRatio="xMidYMid meet">

<g transform="translate(0.000000,203.000000) scale(0.100000,-0.100000)"
fill="#000000" stroke="none">
<path d="M1133 1893 c9 -2 25 -2 35 0 9 3 1 5 -18 5 -19 0 -27 -2 -17 -5z"/>
<path d="M856 1610 c-4 -29 -13 -68 -21 -86 l-14 -33 -43 18 c-24 10 -55 21
-70 25 l-27 6 18 -42 c10 -24 21 -57 24 -75 l6 -31 -95 -7 -96 -8 45 -46 c76
-79 77 -83 8 -132 -33 -23 -58 -45 -56 -49 3 -4 18 -10 34 -13 17 -4 45 -20
63 -36 l33 -30 -44 -45 -44 -45 27 -11 c15 -5 29 -10 31 -10 2 0 15 -4 29 -9
24 -10 24 -11 12 -58 l-13 -48 49 3 48 4 0 -35 c0 -30 3 -34 20 -30 24 6 24 4
0 50 -23 46 -61 185 -59 222 1 17 5 11 11 -19 36 -177 65 -237 127 -265 65
-29 55 -47 -47 -79 l-87 -28 -43 -152 c-55 -198 -55 -212 6 -253 26 -18 63
-38 82 -44 19 -7 40 -15 45 -19 6 -4 39 -18 75 -31 61 -22 82 -24 320 -27 244
-3 260 -2 365 22 61 14 136 38 167 53 51 25 58 31 58 58 0 37 -33 148 -54 179
-14 22 -12 26 38 78 29 30 61 58 70 61 22 9 40 52 31 74 -5 10 -9 68 -10 128
-1 91 -5 117 -24 153 -50 97 -146 166 -249 179 -55 6 -151 -11 -202 -37 -70
-36 -157 -150 -158 -207 0 -17 -5 -41 -11 -52 -16 -30 -13 -66 9 -104 18 -30
19 -36 5 -47 -29 -24 -13 -79 28 -93 14 -5 16 -2 11 21 -4 19 3 13 24 -23 49
-82 144 -135 244 -135 29 0 47 -4 43 -10 -8 -13 -130 3 -190 26 -22 9 -64 -95
-71 -175 -4 -39 -10 -71 -14 -71 -4 0 -12 30 -19 68 -7 37 -34 138 -59 226
l-47 159 -75 21 c-62 17 -76 25 -78 44 -2 12 1 22 7 22 6 0 28 15 48 34 21 18
51 36 67 40 l29 7 -22 23 c-28 30 -27 34 15 42 27 5 34 10 28 23 -18 45 -16
49 30 70 25 11 46 22 46 24 0 3 -20 17 -45 31 -44 26 -58 46 -32 46 21 0 137
59 137 70 0 5 -4 10 -9 10 -5 0 -30 9 -56 21 l-47 21 52 53 c28 29 48 55 43
58 -4 2 -34 8 -65 11 -56 7 -70 19 -50 42 5 5 23 35 41 66 l32 57 -71 -26
c-39 -14 -73 -23 -76 -20 -3 3 -9 44 -11 91 -3 47 -9 86 -13 86 -14 0 -95 -62
-121 -92 l-25 -30 -27 39 c-14 21 -39 53 -55 72 l-29 34 -7 -53z m55 -370 c22
-22 29 -37 27 -57 -3 -28 -3 -28 -83 -28 -80 0 -80 0 -83 28 -4 35 45 87 83
87 16 0 38 -12 56 -30z m202 -26 c22 -12 28 -21 25 -42 -2 -18 -8 -26 -18 -23
-8 2 -43 6 -78 8 -34 3 -65 10 -68 15 -10 16 5 56 24 61 25 7 82 -2 115 -19z
m433 -419 c13 -70 -56 -135 -129 -121 -44 8 -87 56 -87 97 0 28 1 29 50 29 62
0 120 22 120 46 0 30 39 -14 46 -51z m130 19 c18 -8 56 -14 84 -14 44 0 50 -2
50 -21 0 -88 -122 -133 -189 -70 -36 33 -41 74 -15 123 14 28 17 29 26 14 6
-10 25 -24 44 -32z m-806 -144 c-11 -23 -34 -77 -51 -122 l-30 -81 38 -39 c31
-31 35 -40 24 -50 -11 -11 -12 -10 -6 1 5 9 -5 24 -31 46 l-39 33 24 69 c25
71 78 183 86 183 3 0 -4 -18 -15 -40z m264 -86 c53 -108 54 -119 15 -160 l-33
-34 39 -43 40 -42 -45 42 -44 43 33 34 c28 29 32 39 27 62 -8 29 -52 122 -88
184 l-20 35 20 -25 c11 -13 36 -57 56 -96z m-65 -28 c2 -60 -6 -39 -12 34 -3
41 -2 54 3 35 4 -16 8 -48 9 -69z m-182 -78 c-2 -29 -3 -8 -3 47 0 55 1 79 3
53 2 -26 2 -71 0 -100z m190 -25 c-3 -10 -5 -4 -5 12 0 17 2 24 5 18 2 -7 2
-21 0 -30z"/>
<path d="M383 985 c0 -22 2 -30 4 -17 2 12 2 30 0 40 -3 9 -5 -1 -4 -23z"/>
<path d="M391 914 c0 -11 3 -14 6 -6 3 7 2 16 -1 19 -3 4 -6 -2 -5 -13z"/>
<path d="M2006 635 c-9 -26 -7 -32 5 -12 6 10 9 21 6 23 -2 3 -7 -2 -11 -11z"/>
<path d="M1967 567 l-17 -32 20 24 c17 20 26 41 18 41 -2 0 -11 -15 -21 -33z"/>
<path d="M1914 498 l-19 -23 23 19 c21 18 27 26 19 26 -2 0 -12 -10 -23 -22z"/>
<path d="M606 458 c15 -20 30 -35 33 -32 3 2 -10 19 -28 37 l-34 32 29 -37z"/>
<path d="M1849 424 c-18 -19 -27 -32 -18 -29 14 5 65 65 56 65 -2 0 -19 -16
-38 -36z"/>
<path d="M1790 369 c0 -5 5 -7 10 -4 6 3 10 8 10 11 0 2 -4 4 -10 4 -5 0 -10
-5 -10 -11z"/>
</g>
</svg>
