<?xml version="1.0" standalone="no"?>
<!DOCTYPE svg PUBLIC "-//W3C//DTD SVG 20010904//EN"
 "http://www.w3.org/TR/2001/REC-SVG-20010904/DTD/svg10.dtd">
<svg version="1.0" xmlns="http://www.w3.org/2000/svg"
 width="567.000000pt" height="440.000000pt" viewBox="0 0 567.000000 440.000000"
 preserveAspectRatio="xMidYMid meet">

<g transform="translate(0.000000,440.000000) scale(0.100000,-0.100000)"
fill="#000000" stroke="none">
<path d="M1408 3973 c-24 -6 -12 -62 19 -87 13 -10 22 -21 19 -24 -3 -3 -16 3
-28 14 -19 17 -21 17 -15 2 4 -10 3 -18 -2 -18 -6 0 -7 -68 0 -105 1 -5 -1
-58 -5 -116 -5 -81 -3 -115 9 -148 10 -31 12 -48 5 -62 -11 -19 -6 -171 6
-202 3 -9 14 -17 25 -17 26 0 41 -34 42 -100 2 -65 -11 -87 -51 -92 -29 -3
-30 -7 -21 -143 5 -91 -2 -163 -18 -170 -13 -4 -14 -19 -10 -80 6 -72 5 -75
-13 -65 -23 12 -33 13 -25 1 3 -5 -3 -12 -14 -16 -24 -7 -32 -43 -26 -116 3
-41 1 -56 -8 -56 -31 2 -117 -17 -117 -25 0 -6 -7 -7 -15 -4 -11 4 -19 -3 -25
-20 -15 -39 -32 -24 -62 55 -29 81 -36 191 -14 226 19 29 4 65 -24 58 -16 -4
-30 3 -51 26 -35 38 -34 36 -9 108 27 76 25 125 -5 185 -23 46 -25 55 -15 106
17 96 14 139 -14 158 -34 22 -69 15 -77 -16 -4 -14 -7 -18 -8 -9 -1 18 -41 39
-76 39 -22 0 -25 -5 -25 -33 0 -18 -6 -41 -13 -51 -11 -15 -13 -12 -13 29 -1
25 -5 50 -11 56 -12 12 -130 35 -138 27 -3 -3 0 -55 6 -114 7 -60 13 -176 13
-259 1 -82 5 -157 11 -165 5 -8 10 -33 10 -55 2 -64 24 -213 45 -300 19 -76
22 -196 6 -212 -3 -3 -6 -14 -6 -24 0 -12 -6 -16 -21 -12 -25 7 -168 -17 -175
-28 -3 -5 -16 -9 -30 -9 -14 0 -22 -4 -19 -10 3 -6 -1 -7 -9 -4 -9 4 -16 1
-16 -6 0 -9 -11 -11 -40 -6 -41 6 -51 -2 -26 -23 8 -7 29 -9 50 -6 20 4 36 2
36 -3 0 -5 -19 -12 -42 -15 -36 -5 -47 -2 -66 17 -22 21 -28 22 -80 13 -31 -5
-64 -16 -73 -23 -8 -8 -23 -14 -32 -14 -29 0 -19 -14 25 -37 75 -39 100 -44
277 -59 125 -10 185 -11 213 -4 28 8 44 8 60 -2 13 -6 50 -15 84 -19 53 -5
158 -47 275 -109 9 -5 34 -12 55 -15 22 -4 58 -18 81 -31 23 -13 49 -24 59
-24 19 0 86 21 94 30 31 33 60 38 186 35 71 -2 152 -8 179 -13 62 -11 144 -49
167 -78 24 -29 101 -74 129 -74 12 0 37 9 56 21 42 26 74 23 198 -19 50 -16
110 -35 135 -42 25 -6 82 -29 127 -51 66 -33 86 -38 102 -30 11 6 32 11 48 11
21 0 24 3 13 10 -8 5 -11 13 -6 17 4 4 14 -1 22 -12 13 -17 12 -20 -3 -29 -10
-5 -21 -14 -24 -19 -4 -5 -14 -7 -24 -4 -9 4 -14 3 -10 -3 4 -6 8 -23 11 -38
13 -79 28 -122 42 -117 20 8 37 -6 21 -16 -10 -7 -11 -11 -3 -16 7 -5 14 -19
15 -33 3 -18 9 -24 24 -23 95 12 137 22 154 37 20 19 22 18 78 -20 52 -36 58
-44 65 -84 4 -25 13 -55 20 -68 14 -26 86 -72 120 -77 13 -1 42 -6 65 -10 39
-7 42 -6 57 24 23 44 61 42 109 -7 69 -70 107 -239 66 -288 -13 -16 -4 -48 11
-39 5 3 10 2 10 -3 0 -5 24 -26 53 -46 37 -26 59 -35 72 -30 11 5 16 4 12 -3
-4 -6 17 -15 51 -22 70 -16 166 -60 252 -117 36 -24 74 -45 85 -47 11 -1 27
-7 35 -12 12 -7 13 -6 4 6 -6 8 -14 23 -18 34 -6 16 -2 15 22 -8 26 -25 35
-27 78 -23 27 3 53 5 58 5 4 1 6 10 3 21 -3 13 0 20 10 20 8 0 11 -5 8 -10 -3
-6 -1 -10 5 -10 7 0 10 -5 8 -12 -4 -11 -25 -18 -60 -21 -10 -1 -18 -4 -18 -8
0 -13 27 -18 38 -7 12 12 42 4 42 -11 0 -6 -6 -8 -14 -5 -8 3 -17 1 -21 -5 -3
-7 0 -8 9 -5 9 4 18 -1 22 -10 3 -9 11 -16 16 -16 6 0 8 7 4 15 -7 19 1 19 19
1 12 -12 11 -15 -13 -21 l-27 -7 25 -18 c24 -18 46 -18 34 1 -3 5 -9 7 -14 4
-5 -3 -11 -1 -15 5 -7 11 8 12 45 1 20 -6 41 3 114 53 49 34 128 97 176 141
89 82 167 143 296 230 41 28 102 77 137 110 34 34 82 77 107 97 25 19 56 54
70 77 14 22 32 41 40 41 22 1 121 78 221 174 49 46 111 99 139 117 l50 32 0
78 c0 52 -4 79 -12 82 -10 4 -10 6 -1 6 10 1 13 126 13 582 -1 548 -2 580 -18
566 -24 -21 -83 -36 -107 -26 -11 4 -35 8 -53 8 -18 1 -58 12 -87 26 -30 13
-67 24 -82 24 -15 -1 -56 2 -91 7 -90 10 -99 37 -43 119 26 38 27 95 1 127
-14 19 -18 35 -14 64 10 80 26 113 67 141 38 27 48 41 61 96 6 24 4 27 -19 27
-30 0 -32 19 -5 50 25 29 36 87 21 111 -15 26 -14 71 4 105 20 39 19 61 -4 67
-20 5 -43 -36 -63 -111 -14 -55 -79 -183 -96 -189 -7 -3 -25 6 -39 21 -29 32
-39 28 -48 -21 -4 -21 -10 -40 -14 -43 -16 -11 -20 -78 -5 -91 32 -26 0 -107
-48 -119 -23 -6 -63 -71 -72 -121 -4 -19 -12 -46 -17 -60 -6 -16 -7 -40 -1
-65 11 -51 0 -84 -30 -84 -12 0 -35 -12 -50 -27 -23 -22 -31 -25 -37 -14 -9
14 -76 12 -116 -3 -16 -6 -17 -6 -5 3 12 8 7 11 -22 11 -21 0 -38 5 -38 10 0
6 5 10 10 10 21 0 9 18 -17 25 -46 11 -214 35 -249 35 -18 0 -36 5 -39 11 -4
6 -13 8 -20 5 -8 -3 -18 1 -24 7 -11 14 -33 138 -26 145 2 3 -5 16 -15 30 -25
31 -25 52 1 96 25 43 27 127 4 182 -42 100 -53 149 -48 214 2 36 9 69 14 75 5
5 9 28 9 51 0 72 -15 89 -53 59 -23 -17 -36 -100 -45 -278 -5 -91 -11 -130
-21 -136 -20 -13 -34 -100 -20 -133 7 -17 7 -33 1 -45 -5 -10 -15 -43 -22 -73
-15 -68 -38 -140 -50 -160 -8 -12 -14 -13 -47 -1 -48 18 -81 39 -93 61 -7 12
-1 26 21 53 25 31 29 43 25 77 -2 23 -11 51 -19 63 -17 26 -11 87 8 87 24 0
26 59 4 110 -40 92 -95 120 -153 75 -30 -23 -34 -31 -44 -108 -9 -74 -8 -170
3 -222 2 -11 18 -28 34 -38 16 -9 33 -26 36 -37 4 -12 12 -18 18 -14 7 3 -5
-11 -26 -31 l-39 -38 -44 21 c-60 29 -91 27 -144 -9 -51 -34 -66 -60 -41 -71
13 -6 12 -7 -4 -5 -22 3 -22 5 -11 146 5 54 16 102 32 138 30 69 30 94 2 120
-27 24 -101 63 -121 63 -19 0 -43 39 -41 68 1 22 -11 31 -18 11 -2 -6 -14 -1
-27 10 l-24 21 -18 -30 c-10 -16 -26 -30 -34 -30 -20 0 -19 -19 2 -42 17 -19
17 -21 0 -50 -9 -16 -17 -36 -17 -44 0 -8 -5 -23 -12 -33 -13 -22 3 -51 29
-51 8 0 21 -7 30 -15 20 -21 37 -96 24 -105 -15 -9 -1 -52 15 -46 8 3 14 1 14
-5 0 -6 6 -7 13 -3 9 6 9 4 -1 -8 -7 -9 -21 -14 -32 -11 -27 7 -25 -6 3 -17
15 -6 17 -9 6 -9 -20 -1 -32 -50 -17 -68 7 -9 7 -13 0 -13 -14 0 -34 35 -25
44 10 10 -27 7 -48 -5 -11 -5 -17 -14 -15 -18 7 -10 -61 -31 -100 -31 -41 0
-75 -11 -68 -21 3 -5 0 -9 -5 -9 -6 0 -11 9 -11 21 0 12 -4 17 -11 13 -6 -3
-3 5 6 19 29 46 -7 96 -60 83 -24 -6 -45 -54 -45 -103 0 -14 -6 -23 -15 -23
-8 0 -14 -3 -13 -7 1 -5 -4 -25 -12 -45 -10 -27 -20 -38 -35 -38 -12 0 -26 -5
-33 -12 -9 -9 -12 -9 -12 0 0 7 -11 12 -25 12 -14 0 -25 5 -25 10 0 6 -5 10
-11 10 -5 0 -7 -5 -3 -12 4 -7 -6 -3 -22 8 -25 18 -37 20 -99 13 -147 -17
-141 -13 -176 -88 -24 -52 -39 -70 -63 -80 -17 -7 -39 -17 -48 -22 -10 -5 -29
-9 -42 -9 -13 0 -46 -10 -73 -21 -80 -35 -191 -59 -265 -57 -42 1 -73 -3 -80
-10 -7 -7 -23 -12 -35 -12 -22 0 -23 3 -17 48 5 40 2 52 -20 85 -23 33 -26 47
-24 105 3 66 2 68 -35 104 -24 24 -37 45 -37 63 0 15 -4 24 -10 20 -5 -3 -10
-2 -10 3 0 13 -35 52 -47 52 -6 0 -9 -12 -7 -27 3 -24 2 -24 -6 4 -6 18 -16
32 -23 30 -11 -2 -12 20 -2 51 4 11 7 11 19 0 7 -7 12 -18 9 -24 -2 -6 8 -16
22 -22 32 -15 48 -15 40 -2 -3 6 -15 10 -26 10 -11 0 -18 4 -14 10 3 5 12 7
20 3 10 -3 15 1 15 12 0 9 -9 19 -20 22 -14 4 -20 14 -20 34 0 16 -4 38 -10
49 -5 11 -15 29 -20 40 -12 23 2 90 25 126 12 18 11 32 -7 95 -11 41 -23 108
-26 149 -5 53 -13 84 -28 105 -21 28 -45 99 -48 137 0 10 -8 26 -17 36 -11 12
-13 25 -8 34 5 9 4 30 -1 49 -6 19 -10 48 -10 65 0 20 -6 34 -16 38 -17 6 -19
6 -46 -1z m62 -139 c0 -2 -9 -4 -20 -4 -11 0 -20 4 -20 9 0 5 9 7 20 4 11 -3
20 -7 20 -9z m20 -94 c0 -5 -4 -10 -10 -10 -5 0 -10 5 -10 10 0 6 5 10 10 10
6 0 10 -4 10 -10z m84 -316 c5 -12 2 -15 -10 -10 -9 4 -22 3 -28 -1 -7 -5 -3
0 7 10 23 21 23 21 31 1z m-64 -49 c0 -8 -4 -15 -9 -15 -13 0 -22 16 -14 24
11 11 23 6 23 -9z m75 -33 c-3 -8 3 -21 12 -28 16 -13 15 -14 -17 -12 -22 2
-34 8 -32 16 1 6 -8 12 -20 12 -20 0 -21 1 -3 20 14 15 15 20 4 21 -8 0 -5 4
6 9 24 9 58 -16 50 -38z m-15 -82 c0 -4 -11 -10 -25 -12 -20 -4 -23 -3 -14 8
7 9 8 14 1 14 -9 0 -9 9 -2 40 1 7 40 -41 40 -50z m-700 -99 c0 -28 -15 -49
-27 -38 -8 8 7 67 18 67 5 0 9 -13 9 -29z m685 -181 c-3 -5 -16 -10 -28 -10
-18 0 -19 2 -7 10 20 13 43 13 35 0z m3550 -10 c-3 -5 -15 -10 -26 -10 -10 0
-19 5 -19 10 0 6 12 10 26 10 14 0 23 -4 19 -10z m-3598 -16 c-3 -3 -12 -4
-19 -1 -8 3 -5 6 6 6 11 1 17 -2 13 -5z m3663 -14 c0 -5 -10 -10 -22 -10 -19
0 -20 2 -8 10 19 13 30 13 30 0z m-3509 -83 c-10 -9 -11 -8 -5 6 3 10 9 15 12
12 3 -3 0 -11 -7 -18z m1874 5 c-3 -3 -11 0 -18 7 -9 10 -8 11 6 5 10 -3 15
-9 12 -12z m-1978 -34 c-3 -8 -6 -5 -6 6 -1 11 2 17 5 13 3 -3 4 -12 1 -19z
m48 1 c-9 -13 9 -11 23 3 9 9 15 9 24 0 9 -9 7 -12 -9 -12 -12 0 -23 -7 -25
-17 -3 -15 -4 -15 -20 1 -17 16 -14 51 3 40 5 -3 7 -10 4 -15z m2004 -3 c-2
-2 -28 -9 -57 -14 -30 -5 -50 -6 -45 -2 7 8 42 15 87 19 11 0 17 -1 15 -3z
m-152 -41 c0 -8 -4 -12 -9 -9 -4 3 -8 9 -8 15 0 5 4 9 8 9 5 0 9 -7 9 -15z
m-447 -10 c11 -13 10 -14 -4 -9 -9 3 -16 10 -16 15 0 13 6 11 20 -6z m225 -33
c-3 -3 -11 0 -18 7 -9 10 -8 11 6 5 10 -3 15 -9 12 -12z m-135 -2 c-8 -5 -26
-9 -40 -9 -23 0 -23 1 -5 9 11 5 29 9 40 9 17 1 17 -1 5 -9z m-1395 -10 c3 -5
1 -10 -4 -10 -6 0 -11 5 -11 10 0 6 2 10 4 10 3 0 8 -4 11 -10z m1055 -21 c0
-5 -4 -9 -10 -9 -5 0 -10 7 -10 16 0 8 5 12 10 9 6 -3 10 -10 10 -16z m-46 5
c20 -8 11 -24 -14 -24 -13 0 -17 5 -14 15 7 17 7 17 28 9z m2129 -53 c-3 -57
-15 -69 -47 -47 -18 11 -48 16 -106 16 -73 0 -80 2 -80 20 0 16 7 20 31 20 17
0 40 5 52 12 32 17 77 27 117 25 35 -2 35 -2 33 -46z m-2000 -12 c13 -17 22
-19 68 -14 38 4 48 3 33 -4 -12 -5 -47 -12 -78 -14 -54 -4 -57 -3 -72 24 -8
16 -12 34 -9 39 8 13 39 -4 58 -31z m809 -6 c10 -9 18 -29 18 -44 0 -25 -7
-32 -47 -51 -27 -12 -51 -23 -55 -25 -5 -2 -8 14 -8 36 0 28 8 48 26 70 29 35
40 38 66 14z m-427 -53 c3 -6 -1 -7 -9 -4 -18 7 -21 14 -7 14 6 0 13 -4 16
-10z m642 4 c-3 -3 -12 -4 -19 -1 -8 3 -5 6 6 6 11 1 17 -2 13 -5z m399 -60
c-5 -14 -9 -15 -19 -5 -9 9 -9 14 3 21 18 11 24 6 16 -16z m-1996 -24 c19 -19
19 -20 2 -20 -10 0 -23 5 -29 11 -6 6 -26 15 -45 19 l-33 8 43 1 c30 1 48 -5
62 -19z m-77 -7 c-7 -2 -21 -2 -30 0 -10 3 -4 5 12 5 17 0 24 -2 18 -5z m2327
-3 c0 -5 -6 -10 -14 -10 -8 0 -18 5 -21 10 -3 6 3 10 14 10 12 0 21 -4 21 -10z
m-693 -6 c-3 -3 -12 -4 -19 -1 -8 3 -5 6 6 6 11 1 17 -2 13 -5z m951 -41 c4
-59 -20 -71 -94 -48 -30 9 -52 20 -49 25 3 4 -2 11 -11 14 -10 4 -18 -1 -21
-14 -4 -17 -11 -19 -52 -14 -25 3 -53 8 -61 11 -8 4 -18 6 -21 5 -4 -1 -5 7
-2 18 4 16 12 19 56 16 39 -3 54 0 63 12 9 14 29 17 100 17 l89 0 3 -42z
m-2441 31 c-3 -3 -12 -4 -19 -1 -8 3 -5 6 6 6 11 1 17 -2 13 -5z m296 -44 c9
0 17 -4 17 -10 0 -5 -8 -10 -17 -10 -19 0 -53 28 -53 43 0 6 8 3 18 -6 10 -10
26 -17 35 -17z m217 -21 c0 -6 -4 -7 -10 -4 -5 3 -10 11 -10 16 0 6 5 7 10 4
6 -3 10 -11 10 -16z m55 11 c-3 -5 -13 -10 -21 -10 -8 0 -14 5 -14 10 0 6 9
10 21 10 11 0 17 -4 14 -10z m-750 -10 c28 -7 28 -8 5 -9 -14 -1 -36 -4 -50
-6 -21 -5 -22 -4 -5 4 19 8 19 9 -5 13 l-25 5 25 0 c14 1 39 -3 55 -7z m615
-10 c0 -5 -5 -10 -11 -10 -5 0 -7 5 -4 10 3 6 8 10 11 10 2 0 4 -4 4 -10z
m-133 -6 c-3 -3 -12 -4 -19 -1 -8 3 -5 6 6 6 11 1 17 -2 13 -5z m1588 -42 c-8
-9 -45 30 -38 41 4 6 14 1 25 -13 10 -12 16 -25 13 -28z m-1491 32 c9 -3 13
-10 10 -15 -3 -5 1 -9 8 -9 18 0 -23 -26 -52 -33 l-25 -6 23 16 c21 15 31 43
15 43 -5 0 -25 -5 -47 -11 -25 -7 -42 -7 -48 -1 -7 7 3 10 27 10 20 0 39 3 42
6 8 8 27 8 47 0z m1794 -13 c3 -8 -1 -12 -9 -9 -7 2 -15 10 -17 17 -3 8 1 12
9 9 7 -2 15 -10 17 -17z m767 9 c-3 -5 -11 -10 -16 -10 -6 0 -7 5 -4 10 3 6
11 10 16 10 6 0 7 -4 4 -10z m-1440 -43 c-8 -4 -12 -14 -9 -21 7 -18 -25 -29
-42 -15 -19 15 -18 21 6 47 17 18 24 20 40 10 16 -10 17 -14 5 -21z m866 -19
c-10 -26 -36 -42 -51 -33 -14 8 10 63 28 68 26 6 34 -7 23 -35z m-2716 14 c-3
-3 -11 0 -18 7 -9 10 -8 11 6 5 10 -3 15 -9 12 -12z m1693 -5 c7 -6 10 -17 7
-25 -3 -9 -1 -18 5 -22 12 -7 -15 -70 -30 -70 -5 0 -12 20 -16 45 -3 25 -10
48 -15 51 -5 3 -9 14 -9 25 0 16 4 19 23 13 12 -3 28 -11 35 -17z m-1733 -17
c3 -5 2 -10 -4 -10 -5 0 -13 5 -16 10 -3 6 -2 10 4 10 5 0 13 -4 16 -10z m228
3 c-7 -2 -19 -2 -25 0 -7 3 -2 5 12 5 14 0 19 -2 13 -5z m697 -33 c5 0 16 -3
24 -6 12 -5 15 -2 10 10 -3 9 -1 16 5 16 6 0 11 -4 11 -10 0 -5 6 -10 14 -10
8 0 16 -6 19 -13 6 -16 -33 -43 -42 -29 -9 14 -79 52 -96 52 -7 0 -16 -8 -18
-17 -4 -17 -5 -17 -6 -1 -1 11 11 23 32 31 29 12 32 12 35 -5 2 -10 7 -18 12
-18z m110 -14 c0 -6 -9 0 -20 14 -26 33 -25 52 0 21 11 -13 20 -28 20 -35z
m995 33 c-8 -12 -75 -12 -75 0 0 6 15 11 33 13 37 4 50 0 42 -13z m223 -12
c14 -39 16 -77 3 -77 -4 0 -6 -10 -4 -23 6 -32 -20 -53 -38 -31 -11 14 -10 18
6 30 17 12 17 14 2 14 -9 0 -17 -4 -17 -9 0 -5 -15 -9 -34 -8 -45 1 -45 29 1
51 26 12 33 22 33 45 0 25 9 37 30 40 4 1 11 -14 18 -32z m-2314 -19 c-3 -4
-12 -8 -20 -8 -8 0 -13 4 -10 8 3 5 12 9 20 9 8 0 13 -4 10 -9z m826 -23 c0
-8 -7 -11 -20 -8 -23 6 -26 19 -7 26 16 6 27 -1 27 -18z m356 -12 c-7 -8 -56
9 -51 18 3 4 17 3 30 -3 14 -6 23 -13 21 -15z m1252 10 c-10 -2 -26 -2 -35 0
-10 3 -2 5 17 5 19 0 27 -2 18 -5z m-2628 -13 c0 -5 -5 -10 -11 -10 -5 0 -7 5
-4 10 3 6 8 10 11 10 2 0 4 -4 4 -10z m564 -6 c3 -8 2 -12 -4 -9 -6 3 -10 10
-10 16 0 14 7 11 14 -7z m2261 -3 c-8 -13 -35 -15 -35 -2 0 5 8 11 18 13 21 5
26 2 17 -11z m-145 -7 c0 -2 -9 -4 -21 -4 -11 0 -18 4 -14 10 5 8 35 3 35 -6z
m-1520 -4 c0 -5 7 -7 15 -4 11 5 13 2 9 -10 -8 -21 -17 -20 -39 4 -16 18 -16
20 -2 20 10 0 17 -4 17 -10z m-127 -7 c-7 -2 -19 -2 -25 0 -7 3 -2 5 12 5 14
0 19 -2 13 -5z m527 -7 c0 -8 -4 -18 -10 -21 -5 -3 -10 3 -10 14 0 12 5 21 10
21 6 0 10 -6 10 -14z m-70 -26 c0 -5 8 -11 18 -13 9 -2 1 -2 -18 0 -40 5 -44
8 -36 22 7 11 36 4 36 -9z m-2010 -31 c0 -5 -5 -9 -12 -9 -6 0 -8 3 -5 7 4 3
1 13 -6 22 -11 14 -10 14 6 2 9 -7 17 -17 17 -22z m1491 11 c-13 -11 -31 -20
-40 -20 -9 0 0 8 19 19 46 24 50 24 21 1z m1589 7 c0 -14 -40 -40 -86 -57 -29
-10 -29 -10 6 20 19 16 40 33 45 39 14 14 35 13 35 -2z m-850 -12 c0 -8 -9
-15 -20 -15 -11 0 -23 0 -27 -1 -4 0 -9 4 -11 9 -3 9 6 13 51 21 4 0 7 -6 7
-14z m-985 -5 c3 -5 1 -10 -4 -10 -6 0 -11 5 -11 10 0 6 2 10 4 10 3 0 8 -4
11 -10z m-1386 -32 c12 -20 12 -20 -18 1 -36 26 -38 31 -13 24 10 -2 24 -14
31 -25z m-434 3 c7 -22 44 -34 80 -25 14 3 25 3 25 0 0 -15 -51 -25 -77 -15
-15 6 -25 7 -21 3 4 -3 0 -13 -8 -21 -8 -8 -11 -19 -8 -25 5 -7 -2 -9 -20 -4
-14 3 -46 9 -71 13 -25 3 -45 10 -45 15 0 6 16 7 39 3 29 -5 46 -2 70 13 29
18 30 20 11 25 -13 3 -18 10 -14 21 8 22 31 20 39 -3z m1962 2 c3 -7 -4 -9
-16 -6 -12 3 -18 9 -15 15 7 11 26 6 31 -9z m-785 -18 c0 -5 -5 -11 -10 -13
-5 -1 -9 4 -9 13 0 9 4 14 9 13 5 -2 10 -8 10 -13z m-448 -4 c4 -5 -3 -7 -14
-4 -23 6 -26 13 -6 13 8 0 17 -4 20 -9z m1630 -18 c-20 -15 -34 -17 -34 -5 0
16 23 30 38 25 13 -5 12 -8 -4 -20z m-2128 8 c-10 -16 -66 -33 -83 -26 -15 6
-14 9 12 21 34 15 79 18 71 5z m428 -6 c-10 -8 -23 -15 -28 -15 -6 0 -1 7 10
15 10 8 23 15 28 15 6 0 1 -7 -10 -15z m2476 -2 c0 -10 -4 -14 -8 -8 -4 6 -11
13 -16 18 -5 4 -2 7 7 7 10 0 17 -8 17 -17z m-2745 -3 c3 -5 -3 -10 -14 -10
-12 0 -21 5 -21 10 0 6 6 10 14 10 8 0 18 -4 21 -10z m890 -10 c28 -10 43 -19
34 -20 -20 0 -81 20 -93 31 -16 14 5 11 59 -11z m1210 -10 c4 -6 -5 -10 -20
-10 -15 0 -24 4 -20 10 3 6 12 10 20 10 8 0 17 -4 20 -10z m-2390 -15 c6 -2
-14 -4 -43 -4 -29 -1 -51 3 -48 7 4 7 67 5 91 -3z m199 -6 c-11 -5 -13 -8 -5
-8 8 -1 12 -3 9 -6 -3 -3 -16 -1 -29 4 -17 7 -19 10 -6 10 9 1 17 5 17 11 0 5
8 6 17 3 15 -6 15 -7 -3 -14z m1897 12 c-11 -7 -10 -10 5 -14 21 -5 -24 -11
-63 -7 -13 1 -23 -3 -23 -9 0 -6 9 -11 20 -11 11 0 20 -4 20 -9 0 -5 -9 -7
-21 -4 -12 3 -24 2 -28 -3 -3 -5 -22 -7 -41 -3 l-35 6 35 2 35 3 -30 13 -30
14 27 1 c15 0 30 5 33 10 4 6 14 8 23 6 10 -3 24 -1 32 4 8 5 24 10 35 10 15
0 17 -2 6 -9z m424 -11 c-3 -5 -11 -10 -16 -10 -6 0 -7 5 -4 10 3 6 11 10 16
10 6 0 7 -4 4 -10z m589 1 c3 -5 15 -7 26 -4 25 7 26 -7 1 -35 -22 -26 -36
-29 -27 -6 4 12 0 15 -17 12 -26 -4 -30 -37 -7 -55 13 -10 13 -12 -4 -19 -11
-4 -21 -2 -26 6 -5 9 -13 9 -25 3 -12 -7 -14 -13 -6 -17 16 -10 14 -36 -3 -36
-18 0 -47 -40 -39 -53 3 -6 1 -7 -5 -3 -5 3 -12 2 -14 -4 -4 -12 -48 -1 -48
12 0 6 9 8 21 5 12 -3 18 -3 15 0 -7 8 41 53 57 54 7 0 -4 6 -23 13 -25 9 -35
19 -36 34 -1 12 3 22 8 22 6 0 8 -6 5 -13 -4 -10 2 -13 20 -9 28 5 72 42 51
42 -8 1 -5 7 6 15 10 8 23 12 27 9 5 -3 9 4 9 15 0 21 24 29 34 12z m-2979
-11 c-3 -5 -21 -9 -38 -9 l-32 1 30 8 c43 11 47 11 40 0z m1268 -11 c-27 -10
-39 -29 -18 -29 9 0 13 -4 10 -10 -7 -11 44 -34 100 -44 22 -4 43 -13 47 -19
6 -9 10 -8 17 1 7 11 9 11 14 -2 4 -9 13 -13 22 -10 8 3 15 2 15 -4 0 -12 -24
-22 -51 -22 -11 0 -22 -7 -25 -15 -4 -8 -12 -15 -20 -15 -19 0 -18 38 1 42 10
2 12 7 5 18 -7 12 -12 12 -28 -3 -19 -17 -21 -17 -49 0 -16 10 -29 24 -27 31
1 7 0 8 -3 2 -2 -5 -14 -10 -24 -10 -14 0 -18 4 -13 13 6 9 3 8 -8 -1 -20 -16
-80 -12 -85 5 -3 9 4 10 29 2 41 -11 47 -11 29 0 -12 8 -12 12 -2 25 12 14 10
16 -8 16 -12 0 -21 6 -21 14 0 8 -10 17 -22 19 -21 4 -21 4 3 6 14 0 30 -4 35
-9 8 -8 14 -7 22 3 7 8 24 12 44 9 29 -4 30 -6 11 -13z m-1469 -5 c10 -26 7
-34 -12 -34 -26 0 -33 10 -21 31 12 23 25 24 33 3z m1626 6 c0 -5 -5 -10 -11
-10 -5 0 -7 5 -4 10 3 6 8 10 11 10 2 0 4 -4 4 -10z m710 6 c0 -2 -7 -7 -16
-10 -8 -3 -12 -2 -9 4 6 10 25 14 25 6z m1579 -9 c6 -8 8 -17 4 -20 -3 -4 -1
-7 5 -7 7 0 12 -6 12 -14 0 -7 9 -16 19 -19 12 -3 19 -13 18 -24 -1 -15 -7
-18 -29 -15 -17 3 -25 9 -21 16 3 6 -8 -2 -25 -18 -17 -15 -35 -25 -41 -22
-17 11 -13 23 8 29 14 3 18 11 14 26 -3 12 -9 21 -14 21 -13 0 -11 34 3 48 16
16 33 15 47 -1z m-2335 -13 c4 -10 1 -14 -6 -12 -15 5 -23 28 -10 28 5 0 13
-7 16 -16z m636 6 c12 -8 11 -10 -7 -10 -13 0 -23 5 -23 10 0 13 11 13 30 0z
m53 -7 c-7 -2 -19 -2 -25 0 -7 3 -2 5 12 5 14 0 19 -2 13 -5z m-1003 -25 c0
-6 -7 -7 -16 -4 -9 3 -22 6 -30 6 -9 0 -13 4 -10 9 7 11 56 2 56 -11z m60 12
c22 -7 21 -8 -12 -9 -21 -1 -38 4 -38 9 0 11 14 11 50 0z m441 0 c-12 -7 -102
-2 -110 6 -3 2 23 4 58 3 34 -1 57 -5 52 -9z m133 -9 c-5 -5 -20 -12 -34 -16
-23 -6 -22 -5 5 13 29 19 48 21 29 3z m-1717 -17 c0 -20 -14 -17 -26 5 -9 16
-8 18 8 14 9 -2 18 -11 18 -19z m988 6 c24 -17 40 -19 81 -14 42 5 51 3 51
-10 0 -18 -18 -21 -34 -5 -8 8 -17 8 -32 -1 -32 -16 -129 18 -115 41 8 13 16
11 49 -11z m2675 14 c0 -10 -28 -34 -41 -34 -8 0 -5 7 6 20 17 19 35 26 35 14z
m816 -9 c10 -8 15 -14 9 -14 -5 0 -19 6 -29 14 -11 8 -15 15 -10 15 6 0 19 -7
30 -15z m-3461 -5 c3 -6 -1 -7 -9 -4 -18 7 -21 14 -7 14 6 0 13 -4 16 -10z
m625 -4 c0 -3 -4 -8 -10 -11 -5 -3 -10 -1 -10 4 0 6 5 11 10 11 6 0 10 -2 10
-4z m-80 -10 c0 -2 -9 -6 -20 -9 -11 -3 -18 -1 -14 4 5 9 34 13 34 5z m2095
-16 c-10 -11 -20 -18 -23 -15 -7 6 18 35 31 35 5 0 2 -9 -8 -20z m-1450 -1
c-7 -10 24 -8 71 6 12 4 25 2 28 -4 4 -6 0 -11 -8 -11 -21 0 -36 -31 -30 -61
4 -20 3 -21 -4 -4 -9 19 -9 19 -20 0 -6 -11 -14 -17 -18 -13 -4 4 -2 14 4 21
17 20 -4 43 -53 61 l-40 15 38 0 c25 1 36 -3 32 -10z m1632 -58 c-5 -23 -4
-24 7 -8 12 16 26 14 26 -4 0 -10 -27 -24 -61 -33 -19 -4 -29 -1 -33 10 -5 13
-1 14 23 9 27 -6 28 -4 26 23 -1 16 -6 36 -11 43 -6 11 -4 11 10 0 12 -10 16
-23 13 -40z m211 33 c-10 -10 -24 -13 -41 -9 -36 9 -27 20 19 22 33 2 35 0 22
-13z m259 10 c-3 -3 -12 -4 -19 -1 -8 3 -5 6 6 6 11 1 17 -2 13 -5z m-2732
-11 c-11 -3 -26 -10 -33 -16 -7 -5 -16 -7 -19 -3 -11 11 19 26 47 25 21 -1 21
-2 5 -6z m2155 -7 c0 -3 -4 -8 -10 -11 -5 -3 -10 -1 -10 4 0 6 5 11 10 11 6 0
10 -2 10 -4z m-2720 -40 c0 -8 -45 -8 -53 1 -4 3 1 12 10 18 13 10 20 10 30
-1 7 -7 13 -15 13 -18z m3190 25 c-26 -15 -66 -24 -55 -13 6 5 19 12 30 15 32
8 41 7 25 -2z m524 -16 c-4 -8 -2 -15 4 -15 6 0 12 5 14 11 2 7 9 5 17 -5 12
-15 10 -16 -25 -11 -24 3 -41 0 -46 -8 -6 -9 -8 -9 -8 2 0 13 28 40 42 41 4 0
5 -7 2 -15z m-1758 -4 c5 -5 25 -14 45 -20 20 -7 45 -21 54 -31 20 -22 7 -28
-14 -7 -10 10 -12 8 -9 -8 2 -12 -4 -21 -16 -23 -11 -2 -16 0 -12 7 4 6 2 11
-3 11 -6 0 -11 7 -11 16 0 10 -6 14 -15 10 -25 -9 -45 4 -45 30 0 25 9 30 26
15z m636 -3 c-9 -9 -15 -9 -24 0 -9 9 -7 12 12 12 19 0 21 -3 12 -12z m24 -14
c-4 -9 -9 -15 -11 -12 -3 3 -3 13 1 22 4 9 9 15 11 12 3 -3 3 -13 -1 -22z
m649 16 c-27 -12 -43 -12 -25 0 8 5 22 9 30 9 10 0 8 -3 -5 -9z m-765 -20 c0
-5 -8 -10 -17 -10 -15 0 -16 2 -3 10 19 12 20 12 20 0z m-2279 -23 c-13 -13
-26 -3 -16 12 3 6 11 8 17 5 6 -4 6 -10 -1 -17z m89 13 c0 -5 -4 -10 -10 -10
-5 0 -10 5 -10 10 0 6 5 10 10 10 6 0 10 -4 10 -10z m920 1 c25 -7 25 -7 -9
-19 -19 -7 -43 -12 -53 -12 -11 0 -31 -9 -45 -20 -42 -33 -93 -21 -55 13 46
42 102 55 162 38z m-2010 -11 c0 -5 -5 -10 -11 -10 -5 0 -7 5 -4 10 3 6 8 10
11 10 2 0 4 -4 4 -10z m760 -10 c18 -16 20 -20 7 -20 -10 0 -17 5 -17 11 0 6
-15 8 -37 5 l-38 -5 30 14 c17 8 30 14 31 15 1 0 11 -9 24 -20z m2930 -18 c9
-8 -1 -6 -23 4 -24 11 -33 20 -25 25 6 4 17 2 22 -4 6 -7 18 -18 26 -25z m290
23 c9 -11 10 -15 1 -15 -7 0 -19 7 -27 15 -13 13 -13 15 -1 15 8 0 20 -7 27
-15z m-3029 -12 c13 -16 12 -17 -3 -4 -10 7 -18 15 -18 17 0 8 8 3 21 -13z
m1134 -15 c-3 -13 -3 -18 2 -12 4 6 17 14 28 17 17 6 17 4 -4 -13 l-24 -21
-19 21 c-23 24 -30 25 -26 4 2 -10 -5 -18 -14 -19 -12 -2 -18 3 -18 15 0 19
16 27 58 29 20 1 22 -3 17 -21z m643 -3 c-1 -14 -6 -25 -11 -25 -4 0 -5 -4 -2
-10 3 -6 -5 -10 -18 -10 -14 0 -27 7 -31 15 -3 8 -1 15 5 15 5 0 19 9 31 20
27 25 28 25 26 -5z m602 9 c0 -2 -10 -8 -21 -15 -15 -8 -19 -8 -15 0 4 6 0 11
-11 12 -16 0 -16 1 2 8 18 7 45 4 45 -5z m1110 6 c0 -5 -8 -10 -17 -10 -15 0
-16 2 -3 10 19 12 20 12 20 0z m-1825 -9 c6 -11 -28 -33 -44 -29 -5 2 -8 -1
-7 -7 0 -5 9 -10 18 -9 9 0 15 -3 12 -8 -8 -13 -32 -9 -59 8 -15 10 -25 12
-25 5 0 -6 -7 -11 -15 -11 -26 0 -16 17 23 38 40 22 87 28 97 13z m999 -16
c41 -24 72 -67 61 -85 -8 -13 -72 -7 -87 8 -8 8 -8 12 -1 12 6 0 13 -6 16 -12
2 -7 8 -10 12 -6 12 11 -15 38 -37 38 -10 0 -17 4 -13 9 3 5 -3 12 -12 14 -10
3 -4 5 14 4 23 -1 33 -7 37 -21 3 -11 8 -17 12 -13 4 3 15 2 25 -4 29 -15 23
-1 -13 32 -35 31 -101 41 -112 17 -5 -10 -7 -10 -12 0 -7 14 -34 16 -34 2 0
-5 -20 -10 -44 -10 -26 0 -51 -6 -60 -15 -20 -21 -26 -19 -24 9 2 22 5 24 50
20 27 -3 48 -1 48 5 0 11 29 18 88 20 30 1 57 -7 86 -24z m-1634 5 c11 -7 11
-10 2 -10 -7 0 -11 -4 -8 -9 11 -18 -6 -42 -25 -36 -11 4 -19 2 -19 -5 0 -8
-9 -10 -27 -6 -21 5 -24 4 -13 -4 8 -6 33 -9 55 -8 38 2 40 1 38 -27 -1 -15
-8 -32 -15 -36 -10 -6 -9 -9 2 -13 8 -2 22 -7 30 -10 12 -4 -37 -3 -108 3 -7
1 -10 5 -7 11 3 5 19 7 35 3 17 -3 30 -1 30 4 0 12 -68 14 -76 2 -3 -5 -10 -9
-15 -9 -6 0 -7 4 -4 10 10 16 -28 -1 -48 -21 -10 -11 -30 -25 -45 -33 -26 -13
-28 -13 -29 5 -2 16 2 19 19 13 14 -4 18 -2 14 5 -4 6 -2 11 3 11 6 0 11 5 11
11 0 6 10 19 23 30 21 18 21 18 2 19 -17 0 -17 2 -5 10 11 7 6 10 -20 10 -20
0 -40 4 -45 9 -12 10 -75 3 -75 -9 0 -5 -9 -6 -20 -3 -11 3 -20 0 -20 -6 0 -6
-13 -11 -29 -11 -16 0 -35 -7 -42 -17 -13 -15 -11 -16 22 -9 38 7 72 -1 64
-14 -3 -5 -14 -6 -25 -3 -11 3 -20 1 -20 -5 0 -6 -13 -13 -30 -17 -36 -8 -39
-22 -7 -35 22 -9 22 -9 -4 -9 -14 -1 -30 -6 -35 -11 -7 -7 -19 -8 -36 -1 -35
13 -35 54 1 72 14 7 38 25 52 39 39 39 65 50 114 50 25 0 45 4 45 9 0 5 24 11
53 14 28 2 63 8 77 12 17 4 21 4 12 -3 -11 -7 -10 -10 3 -16 26 -9 42 -7 25 4
-12 8 -9 10 13 10 16 0 26 -4 22 -10 -3 -5 2 -10 12 -10 10 0 24 9 31 20 7 12
8 20 2 20 -5 0 -10 5 -10 10 0 13 30 13 50 0z m2015 -1 c4 -6 12 -8 19 -6 7 3
23 -4 37 -15 l24 -19 -25 7 c-39 10 -90 32 -90 38 0 10 29 6 35 -5z m-3172
-24 c23 -32 18 -32 -19 0 -18 16 -23 25 -14 25 8 0 23 -12 33 -25z m2191 -8
c-13 -10 -24 -25 -24 -33 0 -8 -4 -14 -10 -14 -13 0 -13 13 2 28 8 8 8 15 0
25 -9 10 -5 13 22 13 l34 0 -24 -19z m1476 19 c0 -3 -4 -8 -10 -11 -5 -3 -10
-1 -10 4 0 6 5 11 10 11 6 0 10 -2 10 -4z m-1687 -22 c-6 -16 -25 -14 -30 2
-2 5 6 10 16 11 14 1 18 -3 14 -13z m517 12 c0 -3 -4 -8 -10 -11 -5 -3 -10 -1
-10 4 0 6 5 11 10 11 6 0 10 -2 10 -4z m-1293 -31 c0 -8 -6 -15 -14 -15 -14 0
-17 12 -6 23 11 11 20 8 20 -8z m1226 8 c-7 -2 -19 -2 -25 0 -7 3 -2 5 12 5
14 0 19 -2 13 -5z m217 -2 c-14 -4 -24 -13 -22 -20 2 -9 -3 -9 -19 0 -17 9
-19 13 -8 20 8 5 28 8 44 8 29 -1 29 -1 5 -8z m-2515 -21 c-17 -18 -41 -19
-30 0 3 5 -5 11 -17 13 -13 2 -3 5 21 6 43 1 44 1 26 -19z m1524 -16 c-12 -14
-51 -26 -43 -13 3 5 -2 9 -10 9 -25 0 -18 15 12 26 31 11 57 -3 41 -22z m241
27 c0 -6 -4 -13 -10 -16 -5 -3 -10 1 -10 9 0 9 5 16 10 16 6 0 10 -4 10 -9z
m-1820 -23 c0 -5 -9 -4 -20 2 -11 6 -20 12 -20 14 0 2 9 2 20 -1 11 -3 20 -9
20 -15z m1637 7 c0 -8 -4 -15 -9 -15 -10 0 -11 14 -1 23 9 10 10 9 10 -8z m79
0 c22 -11 31 -12 43 -2 12 9 13 9 7 0 -4 -8 -2 -13 6 -14 64 -2 99 -6 104 -12
14 -13 -3 -17 -36 -7 -19 5 -36 6 -39 1 -10 -13 -66 -20 -81 -10 -11 8 -8 9
10 4 24 -7 24 -7 5 9 -11 8 -28 16 -37 16 -19 0 -31 14 -21 24 8 8 6 8 39 -9z
m534 11 c0 -2 -9 -6 -20 -9 -11 -3 -20 -1 -20 4 0 5 9 9 20 9 11 0 20 -2 20
-4z m387 -20 c4 -4 -9 -6 -30 -4 -20 1 -37 6 -37 10 0 9 57 4 67 -6z m-510 -2
c-3 -3 -12 -4 -19 -1 -8 3 -5 6 6 6 11 1 17 -2 13 -5z m1358 -11 c-2 -10 -4
-21 -4 -25 -1 -13 -59 -9 -67 4 -5 7 -2 9 8 5 9 -3 24 3 34 14 21 24 33 24 29
2z m-3510 -3 c3 -5 2 -10 -4 -10 -5 0 -13 5 -16 10 -3 6 -2 10 4 10 5 0 13 -4
16 -10z m865 -7 c0 -10 -6 -14 -20 -10 -11 3 -27 -1 -35 -9 -12 -12 -18 -12
-34 -2 -20 12 -20 13 1 24 33 18 88 15 88 -3z m1110 7 c0 -5 -12 -10 -26 -10
-14 0 -23 4 -19 10 3 6 15 10 26 10 10 0 19 -4 19 -10z m1415 -2 c14 -6 25
-15 25 -20 0 -7 -31 8 -59 29 -10 7 10 2 34 -9z m-1928 -4 c-3 -3 -12 -4 -19
-1 -8 3 -5 6 6 6 11 1 17 -2 13 -5z m2128 -14 c3 -5 -1 -10 -9 -10 -9 0 -16 5
-16 10 0 6 4 10 9 10 6 0 13 -4 16 -10z m-2184 -38 c-7 -2 -18 1 -23 6 -8 8
-4 9 13 5 13 -4 18 -8 10 -11z m-202 -19 c2 -2 -3 -3 -11 -3 -9 0 -19 7 -22
16 -6 15 -4 15 11 3 10 -7 20 -15 22 -16z m768 12 c21 -7 3 -33 -27 -40 -16
-3 -31 -12 -34 -20 -6 -16 -73 -10 -91 8 -7 6 -1 7 17 3 14 -3 34 -3 44 1 31
12 -16 21 -53 11 -24 -6 -40 -5 -63 7 -16 8 -30 18 -30 21 0 2 9 0 19 -6 29
-15 91 -13 97 4 3 8 14 12 27 9 18 -4 19 -3 7 6 -11 9 -4 10 30 5 25 -3 51 -7
57 -9z m883 -25 c0 -15 -14 -18 -33 -8 -16 8 -22 8 -25 -1 -2 -6 -10 -11 -18
-11 -8 0 -14 -4 -14 -10 0 -5 6 -7 14 -4 14 6 60 -38 79 -76 7 -13 19 -25 27
-27 10 -3 9 -1 -2 7 -11 6 -18 23 -18 40 0 34 2 35 30 18 23 -15 44 0 30 21
-7 12 -12 12 -23 3 -7 -7 -17 -9 -20 -5 -4 3 -14 0 -24 -8 -9 -8 -14 -9 -10
-2 4 6 2 15 -4 19 -7 4 -1 11 17 19 24 10 34 8 64 -9 48 -27 98 -78 83 -83 -9
-3 -10 -10 -3 -22 5 -10 6 -21 3 -25 -3 -3 5 -6 19 -6 14 0 37 -9 50 -20 14
-10 28 -16 32 -13 7 7 46 -31 46 -46 0 -5 9 -13 20 -16 20 -6 29 -45 10 -45
-6 0 -23 -11 -38 -25 -15 -14 -33 -25 -41 -25 -8 0 -12 -3 -8 -6 3 -4 -10 -17
-30 -31 -37 -25 -79 -25 -95 0 -5 8 -8 5 -8 -8 -1 -17 -2 -17 -11 4 -11 27 7
47 27 31 6 -6 13 -7 17 -4 3 3 17 -2 31 -11 14 -10 26 -13 26 -7 0 6 -7 15
-16 20 -11 6 -13 11 -5 16 6 4 11 16 11 27 0 11 7 22 15 25 17 7 21 34 5 34
-21 0 -9 20 13 21 12 0 16 3 10 6 -7 2 -13 11 -13 19 0 10 -14 14 -50 14 -31
0 -50 -4 -50 -12 0 -6 -2 -9 -5 -6 -3 3 -2 24 4 47 5 25 5 41 -1 41 -5 0 -20
12 -33 28 -13 15 -25 22 -25 15 0 -6 5 -15 10 -18 18 -11 10 -35 -12 -35 -22
0 -20 -10 4 -14 48 -7 51 -42 3 -42 -27 0 -35 4 -35 18 0 10 -6 18 -12 18 -9
0 -8 4 2 11 13 9 13 10 0 6 -8 -2 -14 -9 -13 -15 4 -18 -26 -37 -39 -24 -18
18 -27 14 -23 -9 4 -20 -44 -79 -65 -79 -5 0 -11 -9 -15 -19 -4 -12 -17 -20
-39 -23 -25 -3 -32 0 -29 9 3 9 -4 13 -20 13 -17 0 -28 7 -32 21 -7 21 7 39
31 39 7 0 14 7 18 15 6 18 2 19 -26 4 -15 -8 -19 -8 -14 0 4 6 3 11 -3 11 -5
0 -12 -6 -14 -12 -9 -21 -25 11 -19 35 3 14 1 18 -6 13 -7 -4 -12 -2 -12 4 0
7 6 10 13 7 50 -21 52 -21 28 0 l-24 19 34 22 c82 53 169 125 169 141 0 17 25
19 53 3 15 -9 27 -19 27 -22z m-2295 20 c3 -5 1 -10 -4 -10 -6 0 -11 5 -11 10
0 6 2 10 4 10 3 0 8 -4 11 -10z m2955 -15 c-7 -8 -17 -12 -23 -8 -6 4 -3 9 9
14 27 11 28 11 14 -6z m50 -6 c0 -14 -17 -10 -23 5 -4 10 -1 13 9 9 7 -3 14
-9 14 -14z m-2733 -8 c9 -13 7 -18 -10 -28 -34 -19 -43 -15 -42 15 0 21 5 28
20 28 11 0 25 -7 32 -15z m-88 -26 c-3 -13 -29 -38 -29 -29 0 4 -9 -1 -20 -11
-18 -16 -20 -16 -20 -2 0 11 -5 14 -17 10 -11 -5 -10 0 6 16 17 17 26 20 34
12 18 -18 29 -13 17 9 -9 17 -8 19 11 12 11 -5 19 -12 18 -17z m341 5 c0 -5
10 -18 22 -30 12 -11 16 -20 9 -20 -7 0 -19 7 -27 15 -9 8 -12 15 -8 15 3 0 1
7 -6 15 -9 10 -9 15 -1 15 6 0 11 -4 11 -10z m1740 6 c0 -11 -19 -15 -25 -6
-3 5 1 10 9 10 9 0 16 -2 16 -4z m-1251 -52 c14 -12 -19 -1 -35 12 -18 14 -18
14 6 3 14 -6 27 -13 29 -15z m351 16 c-13 -9 -13 -10 0 -11 8 -1 19 -1 24 0
16 3 149 -49 167 -65 16 -15 17 -14 12 6 -4 17 -2 21 8 18 8 -3 13 -10 12 -16
-2 -7 4 -9 14 -5 9 4 21 0 27 -9 6 -8 27 -23 46 -33 59 -31 91 -58 78 -66 -9
-6 -9 -14 0 -33 9 -21 9 -26 -2 -26 -14 0 -91 55 -130 93 -25 23 -105 61 -113
53 -4 -3 -1 -6 5 -6 6 0 9 -7 5 -17 -4 -10 -2 -14 4 -10 7 4 10 0 8 -10 -1
-10 -8 -17 -15 -15 -6 1 -8 -3 -4 -9 3 -6 1 -15 -6 -19 -10 -6 -6 -15 13 -36
15 -15 24 -30 22 -33 -3 -2 -11 2 -18 11 -18 23 -67 52 -67 40 0 -6 9 -16 20
-22 29 -15 25 -31 -8 -28 -28 2 -52 -7 -52 -21 0 -4 7 -8 15 -8 8 0 12 4 9 9
-3 4 2 5 10 2 25 -10 18 -24 -11 -24 -35 0 -58 -14 -49 -29 5 -7 1 -9 -9 -5
-20 8 -67 -4 -60 -15 9 -16 -23 -20 -36 -5 -10 13 -10 17 1 24 7 4 19 6 26 3
7 -2 21 0 31 5 14 8 7 10 -26 6 -26 -2 -56 2 -71 10 -25 12 -27 11 -23 -4 7
-27 -81 -21 -109 8 l-21 21 24 -6 c13 -3 30 -10 37 -16 9 -7 12 -4 12 11 0 27
17 37 35 22 8 -7 15 -9 15 -5 0 4 7 2 15 -5 13 -11 13 -8 4 18 -7 20 -15 29
-25 25 -8 -3 -14 -1 -14 5 0 11 30 21 48 15 6 -3 10 -8 7 -12 -2 -5 7 -13 22
-20 24 -11 25 -11 13 4 -12 14 -11 16 12 10 18 -5 25 -2 25 9 0 8 -4 13 -9 10
-4 -3 -8 0 -8 5 0 6 -3 10 -7 10 -21 -3 -31 3 -41 26 -10 21 -9 25 3 25 19 0
19 34 0 50 -11 9 -12 16 -2 31 6 10 16 19 22 20 5 0 26 11 45 24 19 13 40 24
45 24 6 1 3 -4 -5 -9z m447 -16 c-3 -3 -12 -4 -19 -1 -8 3 -5 6 6 6 11 1 17
-2 13 -5z m-752 -24 c3 -6 -1 -7 -9 -4 -18 7 -21 14 -7 14 6 0 13 -4 16 -10z
m1449 -35 c-6 -16 -24 -21 -24 -7 0 11 11 22 21 22 5 0 6 -7 3 -15z m-1244
-40 c0 -12 -21 -25 -41 -25 -17 0 -9 38 9 43 22 5 32 -1 32 -18z m1337 19 c-3
-3 -12 -4 -19 -1 -8 3 -5 6 6 6 11 1 17 -2 13 -5z m-2292 -24 c3 -6 -1 -7 -9
-4 -18 7 -21 14 -7 14 6 0 13 -4 16 -10z m1685 -40 c0 -5 -2 -10 -4 -10 -3 0
-8 5 -11 10 -3 6 -1 10 4 10 6 0 11 -4 11 -10z m320 1 c0 -5 -7 -12 -16 -15
-14 -5 -15 -4 -4 9 14 17 20 19 20 6z m-1100 -16 c0 -8 -2 -15 -4 -15 -2 0 -6
7 -10 15 -3 8 -1 15 4 15 6 0 10 -7 10 -15z m750 11 c0 -2 -7 -7 -16 -10 -8
-3 -12 -2 -9 4 6 10 25 14 25 6z m-1640 -42 c0 -2 -7 -4 -15 -4 -8 0 -15 4
-15 10 0 5 7 7 15 4 8 -4 15 -8 15 -10z m1275 -4 c-4 -13 -2 -20 6 -20 7 0 10
-2 7 -5 -3 -3 -12 -3 -21 1 -13 5 -14 9 -4 25 15 25 20 24 12 -1z m816 -34
c-11 -12 -24 -32 -29 -45 -5 -15 -17 -25 -32 -26 l-23 -2 22 19 c13 10 18 18
13 18 -6 0 -14 -4 -17 -10 -3 -5 -15 -10 -27 -10 -17 0 -18 2 -8 15 7 8 9 15
4 15 -5 0 -1 5 9 11 9 5 17 19 17 30 0 16 5 19 19 14 11 -3 25 0 33 9 11 13
14 13 25 -1 11 -14 10 -20 -6 -37z m-169 10 c-9 -5 -23 -16 -31 -24 -12 -12
-16 -11 -24 3 -6 11 -5 21 2 28 8 8 11 8 11 -1 0 -7 5 -12 10 -12 6 0 10 6 10
14 0 18 23 27 32 12 4 -6 -1 -15 -10 -20z m-667 -14 c-8 -8 -25 10 -25 26 0
13 2 13 14 -4 8 -10 13 -21 11 -22z m175 -22 c0 -5 -7 -7 -15 -4 -8 4 -15 8
-15 10 0 2 7 4 15 4 8 0 15 -4 15 -10z m426 -27 c-4 -4 -12 -1 -19 7 -9 10 -9
11 1 6 7 -4 12 -2 13 6 0 11 2 11 6 0 3 -7 2 -16 -1 -19z m-1117 -22 c10 -6
10 -10 1 -16 -7 -4 -19 0 -28 9 -14 13 -14 16 -2 16 8 0 21 -4 29 -9z m3 -25
c14 -1 30 -5 35 -10 5 -5 0 -6 -11 -2 -15 5 -17 4 -7 -8 10 -11 4 -13 -34 -8
-38 4 -45 2 -45 -13 0 -9 -10 -19 -22 -23 -21 -5 -21 -6 -2 -13 18 -7 18 -8
-2 -8 -12 -1 -35 5 -52 12 -24 10 -27 14 -16 25 9 8 20 9 39 2 40 -15 54 -10
18 6 -34 14 -47 29 -16 17 10 -4 14 -2 10 4 -9 14 42 34 63 26 8 -4 27 -7 42
-7z m1133 4 c3 -6 -1 -7 -9 -4 -18 7 -21 14 -7 14 6 0 13 -4 16 -10z m171 -5
c-8 -8 -17 -15 -20 -15 -3 0 -6 7 -6 15 0 9 9 15 21 15 18 0 19 -2 5 -15z
m-1110 -26 c3 -5 1 -9 -5 -9 -17 0 -41 12 -41 20 0 10 38 1 46 -11z m148 2 c3
-5 -1 -14 -10 -21 -8 -7 -13 -19 -10 -27 3 -7 0 -13 -7 -13 -7 0 -23 -3 -37
-7 -22 -6 -24 -5 -11 10 7 9 20 17 27 17 8 0 14 8 14 18 0 29 22 43 34 23z
m-54 -12 c0 -5 -5 -7 -10 -4 -6 3 -13 -1 -16 -9 -3 -9 -13 -16 -22 -16 -13 0
-12 3 4 19 21 22 44 27 44 10z m180 -6 c0 -5 -15 -16 -33 -26 l-32 -19 24 26
c24 26 41 33 41 19z m-317 -10 c-7 -2 -19 -2 -25 0 -7 3 -2 5 12 5 14 0 19 -2
13 -5z m-183 -23 c0 -5 -4 -10 -9 -10 -6 0 -13 5 -16 10 -3 6 1 10 9 10 9 0
16 -4 16 -10z m892 -11 c33 -20 29 -21 -32 -3 -11 3 -18 10 -15 15 8 12 10 12
47 -12z m-672 -18 c0 -17 -18 -21 -24 -6 -3 9 0 15 9 15 8 0 15 -4 15 -9z
m410 -21 c0 -5 -2 -10 -4 -10 -3 0 -8 5 -11 10 -3 6 -1 10 4 10 6 0 11 -4 11
-10z m-423 -51 c-39 -6 -58 1 -30 12 12 4 24 13 28 19 5 8 11 5 20 -7 12 -16
10 -19 -18 -24z m125 -24 c0 -5 -5 -11 -11 -13 -6 -2 -11 4 -11 13 0 9 5 15
11 13 6 -2 11 -8 11 -13z m113 -55 c3 -5 -1 -10 -9 -10 -8 0 -18 5 -21 10 -3
6 1 10 9 10 8 0 18 -4 21 -10z m492 -96 c-3 -3 -12 -4 -19 -1 -8 3 -5 6 6 6
11 1 17 -2 13 -5z m-107 -24 c0 -5 -4 -10 -10 -10 -5 0 -10 5 -10 10 0 6 5 10
10 10 6 0 10 -4 10 -10z m-50 -30 c0 -5 -4 -10 -10 -10 -5 0 -10 5 -10 10 0 6
5 10 10 10 6 0 10 -4 10 -10z m-537 -36 c28 -15 30 -18 12 -24 -24 -8 -96 -21
-77 -13 6 2 10 9 6 14 -3 5 7 9 23 9 24 1 25 2 10 11 -9 5 -22 7 -27 4 -6 -3
-10 -1 -10 4 0 16 26 13 63 -5z m557 5 c0 -7 15 -10 40 -7 23 2 40 -1 40 -7 0
-5 -23 -11 -50 -11 -43 -2 -50 1 -50 17 0 10 5 19 10 19 6 0 10 -5 10 -11z
m-440 -200 c8 -5 35 -19 59 -31 32 -17 39 -24 26 -27 -17 -3 -16 -5 6 -17 13
-7 18 -13 11 -14 -7 0 -23 11 -35 24 -12 13 -53 40 -90 61 -37 20 -70 41 -73
47 -6 9 16 -1 96 -43z m160 -109 c0 -5 -2 -10 -4 -10 -3 0 -8 5 -11 10 -3 6
-1 10 4 10 6 0 11 -4 11 -10z m355 0 c-3 -5 -16 -10 -28 -9 -21 0 -21 1 -2 9
28 12 37 12 30 0z"/>
<path d="M1545 3350 c-3 -5 -2 -10 4 -10 5 0 13 5 16 10 3 6 2 10 -4 10 -5 0
-13 -4 -16 -10z"/>
<path d="M4580 1940 c0 -5 5 -10 11 -10 5 0 7 5 4 10 -3 6 -8 10 -11 10 -2 0
-4 -4 -4 -10z"/>
<path d="M1775 1970 c3 -5 8 -10 11 -10 2 0 4 5 4 10 0 6 -5 10 -11 10 -5 0
-7 -4 -4 -10z"/>
<path d="M4687 1719 c7 -7 15 -10 18 -7 3 3 -2 9 -12 12 -14 6 -15 5 -6 -5z"/>
<path d="M2565 1640 c-16 -7 -17 -9 -3 -9 9 -1 20 4 23 9 7 11 7 11 -20 0z"/>
<path d="M2555 1590 c-3 -5 -2 -10 4 -10 5 0 13 5 16 10 3 6 2 10 -4 10 -5 0
-13 -4 -16 -10z"/>
<path d="M4885 1500 c3 -5 11 -10 16 -10 6 0 7 5 4 10 -3 6 -11 10 -16 10 -6
0 -7 -4 -4 -10z"/>
<path d="M4705 1490 c-3 -5 1 -10 9 -10 9 0 16 5 16 10 0 6 -4 10 -9 10 -6 0
-13 -4 -16 -10z"/>
<path d="M4620 1466 c0 -15 18 -31 26 -23 7 7 -7 37 -17 37 -5 0 -9 -6 -9 -14z"/>
<path d="M4585 1461 c-3 -5 -1 -12 5 -16 5 -3 10 1 10 9 0 18 -6 21 -15 7z"/>
<path d="M4660 1454 c0 -14 3 -14 15 -4 8 7 15 14 15 16 0 2 -7 4 -15 4 -8 0
-15 -7 -15 -16z"/>
<path d="M4700 1445 c-13 -14 -20 -28 -17 -32 4 -3 7 -1 7 5 0 7 9 12 20 12
13 0 20 7 20 20 0 25 -2 25 -30 -5z"/>
<path d="M4613 1425 c0 -8 4 -12 9 -9 5 3 6 10 3 15 -9 13 -12 11 -12 -6z"/>
<path d="M4650 1340 c-8 -5 -12 -11 -9 -14 2 -3 11 -1 19 4 8 5 12 11 9 14 -2
3 -11 1 -19 -4z"/>
<path d="M5017 1294 l-18 -24 26 12 c25 11 32 23 18 31 -5 3 -16 -6 -26 -19z"/>
<path d="M4990 1241 c0 -6 5 -13 10 -16 6 -3 10 1 10 9 0 9 -4 16 -10 16 -5 0
-10 -4 -10 -9z"/>
<path d="M3895 1460 c3 -5 8 -10 11 -10 2 0 4 5 4 10 0 6 -5 10 -11 10 -5 0
-7 -4 -4 -10z"/>
<path d="M3965 1460 c-3 -5 -3 -10 2 -11 4 0 -1 -4 -12 -9 -15 -7 -16 -9 -4
-9 21 -1 44 25 30 33 -5 4 -12 2 -16 -4z"/>
<path d="M4138 1403 c7 -3 16 -2 19 1 4 3 -2 6 -13 5 -11 0 -14 -3 -6 -6z"/>
<path d="M3760 1380 c0 -5 5 -10 11 -10 5 0 7 5 4 10 -3 6 -8 10 -11 10 -2 0
-4 -4 -4 -10z"/>
<path d="M3830 1380 c0 -5 5 -10 11 -10 5 0 7 5 4 10 -3 6 -8 10 -11 10 -2 0
-4 -4 -4 -10z"/>
<path d="M3798 1363 c7 -3 16 -2 19 1 4 3 -2 6 -13 5 -11 0 -14 -3 -6 -6z"/>
<path d="M3907 1345 c3 -8 9 -12 14 -9 12 7 11 11 -5 17 -10 4 -13 1 -9 -8z"/>
<path d="M3880 1316 c0 -8 4 -17 9 -21 6 -3 9 4 8 15 -1 23 -17 28 -17 6z"/>
<path d="M4103 405 c11 -8 26 -11 35 -8 9 4 13 2 9 -3 -3 -6 7 -15 24 -21 16
-6 29 -7 29 -2 0 15 -51 43 -84 45 -28 2 -29 1 -13 -11z"/>
</g>
</svg>
