<?xml version="1.0" standalone="no"?>
<!DOCTYPE svg PUBLIC "-//W3C//DTD SVG 20010904//EN"
 "http://www.w3.org/TR/2001/REC-SVG-20010904/DTD/svg10.dtd">
<svg version="1.0" xmlns="http://www.w3.org/2000/svg"
 width="503.000000pt" height="496.000000pt" viewBox="0 0 503.000000 496.000000"
 preserveAspectRatio="xMidYMid meet">

<g transform="translate(0.000000,496.000000) scale(0.100000,-0.100000)"
fill="#000000" stroke="none">
<path d="M2810 4700 c-9 -6 -40 -7 -74 -4 -57 7 -58 6 -47 -15 14 -25 -3 -30
-17 -5 -7 13 -13 14 -31 5 -17 -9 -30 -9 -56 -1 -30 10 -38 9 -60 -8 -13 -11
-51 -25 -85 -33 -45 -10 -62 -18 -66 -34 -9 -28 -23 -35 -53 -24 -14 6 -42 9
-63 8 -20 -2 -40 0 -44 4 -13 12 -51 8 -64 -8 -7 -8 -19 -15 -27 -15 -9 0 -12
-6 -9 -18 4 -11 -2 -22 -16 -31 -13 -8 -23 -10 -25 -4 -6 16 -73 -10 -73 -28
0 -21 -28 -45 -61 -53 -15 -3 -37 -17 -50 -31 -28 -29 -39 -31 -40 -7 0 13 -2
14 -5 2 -13 -37 -57 -120 -65 -120 -13 0 -36 -50 -44 -95 -4 -22 -16 -48 -27
-58 -26 -25 -38 -60 -38 -107 0 -21 -5 -42 -11 -46 -7 -4 -9 -24 -5 -53 5 -39
7 -426 3 -561 -1 -29 6 -60 21 -88 26 -50 28 -66 7 -58 -20 7 -32 -21 -16 -37
6 -6 11 -22 11 -36 -1 -24 -2 -23 -21 12 -11 20 -22 37 -25 37 -9 0 6 -73 18
-88 8 -9 14 -9 25 -1 11 10 13 7 12 -17 -1 -16 2 -37 6 -46 5 -12 2 -20 -9
-24 -12 -5 -14 -15 -10 -42 3 -20 12 -41 19 -47 14 -11 31 -42 69 -125 29 -63
31 -59 11 30 -15 68 -19 291 -6 323 11 30 28 1 44 -79 40 -190 129 -271 323
-294 116 -14 155 -1 216 74 23 28 52 60 64 72 20 20 40 64 66 154 12 40 17 45
45 48 40 4 53 -18 57 -96 3 -64 33 -143 46 -123 6 10 12 11 26 2 11 -6 16 -11
12 -11 -3 0 8 -14 25 -32 29 -30 30 -33 12 -36 -33 -7 -45 -22 -45 -58 0 -34
-42 -109 -54 -96 -4 3 -4 -2 0 -11 8 -21 -21 -57 -45 -57 -9 0 -23 -10 -31
-21 -31 -44 -43 -53 -54 -37 -12 14 -108 78 -119 78 -18 0 -4 -29 16 -34 30
-7 74 -49 58 -54 -6 -2 -19 2 -27 9 -9 7 -36 14 -62 15 -43 2 -50 -2 -94 -46
-54 -55 -59 -47 -23 34 39 87 73 136 90 130 11 -4 15 0 15 16 0 12 5 30 10 41
16 30 -11 24 -41 -8 -56 -62 -101 -143 -113 -206 -2 -6 -6 -30 -10 -52 -10
-52 -26 -95 -36 -95 -15 0 -23 -109 -10 -125 8 -10 9 -15 2 -15 -6 0 -9 -7 -6
-15 4 -9 0 -15 -9 -15 -8 0 -17 9 -20 20 -4 17 -9 18 -38 10 -41 -12 -48 -12
-30 -1 7 5 10 14 7 20 -4 6 -12 8 -18 5 -7 -5 -9 -1 -5 9 3 9 2 19 -3 22 -6 4
-10 11 -10 17 0 6 7 5 17 -3 15 -13 15 -12 4 9 -6 12 -18 22 -27 22 -8 0 -17
8 -21 17 -3 10 -12 25 -19 33 -8 9 -10 21 -5 29 6 9 10 6 15 -13 3 -14 12 -26
20 -26 20 0 27 12 14 27 -14 17 -2 31 14 15 22 -22 25 -12 11 31 -9 28 -24 49
-44 61 -16 9 -29 21 -29 26 0 4 -8 7 -17 5 -68 -14 -72 -16 -70 -35 1 -11 7
-20 13 -20 6 0 14 -9 17 -20 3 -11 1 -20 -4 -20 -20 0 34 -141 81 -210 9 -14
27 -54 40 -90 21 -59 80 -179 101 -206 5 -6 6 -14 2 -18 -4 -4 -2 -10 5 -15
14 -8 18 -48 7 -74 -5 -12 -3 -17 5 -15 18 4 58 -51 43 -60 -19 -12 9 -40 47
-46 19 -3 40 -12 46 -21 7 -9 15 -16 18 -15 4 1 12 -1 19 -3 6 -3 3 -6 -8 -6
-16 -1 -14 -5 13 -21 29 -18 43 -40 24 -40 -4 0 -13 -14 -21 -31 -10 -23 -11
-37 -2 -55 6 -13 7 -24 2 -24 -5 0 -11 -13 -14 -29 -7 -34 -47 -48 -91 -31
-15 5 -38 10 -51 10 -23 0 -108 52 -159 99 -54 49 -114 141 -145 222 -28 73
-30 86 -20 118 7 19 33 54 60 79 27 24 47 48 44 52 -13 21 -145 -24 -145 -49
0 -26 -62 -76 -148 -120 -121 -61 -134 -68 -202 -112 -102 -66 -231 -131 -348
-175 -145 -55 -191 -82 -270 -157 -98 -94 -177 -254 -225 -457 -25 -101 -69
-361 -102 -597 -9 -62 -29 -157 -45 -212 -17 -55 -30 -110 -30 -121 l0 -20
2021 0 2021 0 59 35 c32 20 61 45 64 56 5 13 -10 76 -38 163 -25 77 -52 170
-61 206 -139 554 -199 752 -267 870 -30 53 -77 109 -158 191 l-116 116 -135
32 c-269 64 -517 164 -757 306 -32 19 -65 38 -73 43 -13 8 -11 21 14 98 15 49
45 127 66 174 41 94 68 167 100 280 16 54 31 83 55 105 36 35 60 94 50 125 -4
12 -2 27 4 34 6 6 17 59 26 117 9 57 23 136 30 174 8 39 17 129 20 200 3 72 7
164 9 205 3 77 22 189 36 225 26 62 34 185 13 185 -21 0 -3 61 32 105 24 32
32 51 34 93 1 31 -2 52 -8 52 -6 0 -11 9 -11 20 0 13 -5 18 -15 14 -10 -4 -15
0 -15 15 0 12 6 21 12 21 7 0 1 11 -12 23 l-25 24 -6 -26 c-5 -22 -7 -19 -13
22 -5 30 -13 47 -22 47 -8 0 -14 -7 -14 -16 0 -11 -9 -8 -37 15 -20 16 -40 28
-44 25 -4 -2 -10 5 -14 16 -3 11 -10 20 -15 20 -5 0 -7 7 -4 15 5 11 -1 15
-21 15 -21 0 -25 4 -21 18 4 11 -3 26 -17 39 -47 47 -67 63 -67 56 0 -5 -12 6
-28 22 -15 17 -40 37 -57 45 -16 8 -38 21 -47 29 -16 12 -18 12 -18 -3 0 -9
-4 -14 -10 -11 -5 3 -10 1 -10 -4 0 -6 -4 -11 -10 -11 -5 0 -10 6 -10 14 0 14
-64 76 -78 76 -4 0 -14 -5 -22 -10z m-660 -150 c0 -5 -4 -10 -10 -10 -5 0 -10
5 -10 10 0 6 5 10 10 10 6 0 10 -4 10 -10z m280 -494 c17 4 31 0 39 -10 8 -9
23 -16 35 -16 12 0 26 -4 32 -9 15 -15 70 -17 87 -2 9 7 26 12 39 11 13 -1 30
-2 38 -1 13 1 13 2 0 11 -9 6 -10 10 -3 10 6 0 15 -5 19 -11 3 -6 15 -8 27 -5
11 3 34 -2 51 -12 17 -9 36 -16 41 -17 73 -6 142 -35 130 -55 -3 -4 2 -11 10
-14 11 -4 14 -13 9 -31 -3 -14 -2 -25 4 -25 5 0 12 -29 16 -65 6 -61 29 -110
47 -100 17 11 28 -22 19 -60 -10 -43 -5 -59 16 -51 8 3 14 -1 14 -9 0 -9 6
-24 12 -35 10 -16 10 -22 -5 -32 -10 -8 -19 -22 -19 -33 -2 -24 49 -115 65
-115 6 0 8 -2 6 -5 -3 -2 -23 5 -45 16 -36 17 -47 18 -95 9 -72 -15 -96 -24
-214 -80 -55 -27 -122 -58 -148 -69 -26 -12 -45 -26 -42 -30 3 -5 -30 -11 -72
-13 -70 -4 -80 -2 -99 18 -12 12 -41 32 -65 44 -24 12 -53 30 -64 39 -23 20
-106 56 -179 79 -68 20 -160 20 -183 0 -10 -9 -27 -18 -38 -20 -20 -3 -41 -36
-50 -80 -3 -18 -15 -29 -36 -37 -53 -18 -56 -16 -64 55 -13 127 22 359 75 489
32 77 60 134 79 155 46 54 64 70 77 71 18 2 23 3 54 16 27 11 76 11 87 0 13
-14 43 -7 37 8 -5 11 2 15 27 16 19 0 50 2 69 3 19 1 41 -2 48 -7 9 -7 18 -5
29 6 14 14 19 14 36 2 11 -8 32 -12 47 -9z m-367 -792 c-10 -7 -24 -14 -31
-14 -7 0 -24 -12 -37 -26 -14 -15 -25 -25 -25 -22 0 3 -18 -12 -40 -33 -22
-21 -40 -45 -40 -54 0 -8 14 -27 30 -42 17 -14 30 -36 30 -47 0 -24 20 -60 20
-38 0 9 14 3 38 -16 20 -16 48 -35 62 -42 33 -17 148 -17 180 0 14 7 38 13 53
12 16 -2 26 2 23 7 -3 4 5 9 18 9 19 0 22 -5 18 -22 -17 -69 -100 -117 -213
-124 -66 -4 -84 -1 -130 20 -95 44 -150 115 -169 219 -12 61 3 133 34 167 41
46 157 90 184 69 9 -8 8 -13 -5 -23z m-335 -16 c7 -7 12 -19 12 -27 0 -11 -4
-10 -20 4 -21 19 -26 35 -12 35 4 0 13 -5 20 -12z m436 -87 c14 -5 16 -10 8
-15 -7 -4 -16 -5 -21 -1 -5 3 -22 -5 -37 -19 -22 -18 -28 -32 -27 -60 1 -32
-1 -35 -18 -26 -50 27 -39 82 21 112 38 20 45 20 74 9z m251 -30 c3 -5 1 -12
-5 -16 -5 -3 -10 1 -10 9 0 18 6 21 15 7z m-105 -81 c0 -5 -5 -10 -11 -10 -5
0 -7 5 -4 10 3 6 8 10 11 10 2 0 4 -4 4 -10z m881 -53 c-10 -9 -11 -8 -5 6 3
10 9 15 12 12 3 -3 0 -11 -7 -18z m-26 -54 c-32 -50 -58 -73 -112 -99 -105
-49 -288 -24 -288 41 0 29 25 33 65 10 33 -19 86 -19 94 0 3 8 12 12 20 9 8
-3 24 0 36 6 16 9 28 8 50 -2 17 -7 30 -16 30 -20 0 -5 7 -8 15 -8 8 0 15 5
15 10 0 6 11 15 24 20 14 5 32 21 42 35 9 14 19 25 21 25 3 0 -3 -12 -12 -27z
m68 2 c-3 -9 -8 -14 -10 -11 -3 3 -2 9 2 15 9 16 15 13 8 -4z m-178 -145 c-27
-12 -43 -12 -25 0 8 5 22 9 30 9 10 0 8 -3 -5 -9z m-94 -36 c52 -5 57 -8 62
-32 6 -32 -8 -62 -29 -62 -8 0 -12 -5 -9 -10 3 -6 -2 -13 -12 -17 -10 -3 -25
-15 -35 -27 -15 -19 -18 -19 -44 -6 -15 8 -38 33 -51 55 -14 22 -33 52 -44 67
-10 15 -19 29 -19 32 0 7 112 6 181 0z m-1051 -243 c0 -12 -28 -22 -34 -12 -3
5 -3 11 1 15 9 9 33 7 33 -3z m25 -57 c11 4 12 0 6 -16 -4 -12 -16 -22 -25
-24 -12 -2 -16 2 -12 13 3 8 7 24 7 36 1 18 2 19 6 4 3 -11 11 -16 18 -13z
m690 -4 c6 -10 -10 -15 -103 -29 -61 -10 -92 -7 -92 9 0 4 35 12 78 17 108 14
110 14 117 3z m-260 -40 c-3 -5 -19 -11 -35 -15 -17 -4 -43 -20 -59 -36 -45
-45 -54 -35 -25 27 14 29 22 34 50 34 18 0 36 5 39 10 5 8 11 7 21 -1 7 -6 12
-15 9 -19z m63 -63 c9 14 169 16 178 2 3 -6 11 -5 20 2 12 9 18 9 27 0 9 -9 9
-14 -3 -21 -8 -5 -10 -10 -5 -11 6 0 -12 -6 -40 -14 -69 -18 -235 0 -235 26 0
15 34 28 42 16 6 -9 10 -9 16 0z m-348 -157 c0 -5 -9 -10 -21 -10 -11 0 -17 5
-14 10 3 6 13 10 21 10 8 0 14 -4 14 -10z m730 -16 c0 -3 -7 -18 -15 -32 -8
-15 -24 -51 -36 -80 -12 -29 -23 -51 -25 -49 -8 7 21 94 37 113 11 11 19 28
19 37 0 9 5 17 10 17 6 0 10 -3 10 -6z m-634 -46 c6 -19 -2 -38 -15 -38 -6 0
-31 57 -31 73 0 13 40 -18 46 -35z m91 -15 c18 -21 33 -44 33 -51 0 -7 4 -11
9 -8 5 3 11 -2 13 -12 3 -11 0 -19 -8 -19 -7 0 -12 3 -10 6 2 3 -2 12 -10 19
-19 17 -19 0 0 -61 8 -26 12 -55 10 -65 -3 -10 6 -28 21 -42 14 -14 34 -33 45
-44 10 -10 25 -16 33 -13 24 9 39 -14 19 -29 -23 -18 -59 -17 -66 1 -3 8 -14
15 -25 15 -25 0 -54 28 -47 46 3 8 1 14 -4 14 -6 0 -10 6 -10 14 0 8 -16 31
-37 52 -31 33 -37 45 -38 91 -2 41 1 53 12 53 9 0 14 9 13 23 -5 58 2 60 47
10z m427 1 c9 -36 -9 -54 -29 -28 -14 18 -14 17 -15 -13 0 -37 -6 -40 -32 -16
-17 15 -18 15 -18 -10 0 -20 -5 -27 -20 -27 -11 0 -23 7 -27 17 -5 14 -8 13
-14 -5 -9 -23 -33 -29 -44 -12 -4 6 -12 5 -21 -4 -15 -15 -44 -12 -44 5 0 5
-11 7 -24 3 -21 -5 -24 -2 -28 28 -3 18 -8 42 -12 53 -5 13 -5 15 1 8 23 -32
258 -22 293 12 20 21 27 19 34 -11z m-604 -24 c0 -5 -7 -10 -16 -10 -8 0 -12
5 -9 10 3 6 10 10 16 10 5 0 9 -4 9 -10z m250 -105 c7 -9 8 -15 2 -15 -5 0
-12 7 -16 15 -3 8 -4 15 -2 15 2 0 9 -7 16 -15z m488 -48 c-5 -27 -16 -51 -24
-54 -8 -3 -14 -11 -14 -19 0 -8 -7 -14 -14 -14 -11 0 -6 19 20 71 19 39 37 69
39 67 2 -2 -1 -25 -7 -51z m-218 -462 c-33 -19 -49 -19 -24 0 10 8 26 14 34
14 9 0 4 -6 -10 -14z m-85 -45 c-19 -21 -37 -18 -28 5 3 8 14 15 26 15 19 0
19 -1 2 -20z"/>
<path d="M2044 2615 c-4 -10 -1 -21 7 -26 23 -14 31 -10 27 13 -4 27 -26 35
-34 13z"/>
</g>
</svg>
